<svg id="visual" viewBox="0 0 960 540" width="960" height="540" xmlns="http://www.w3.org/2000/svg" xmlns:xlink="http://www.w3.org/1999/xlink" version="1.1"><rect x="0" y="0" width="960" height="540" fill="#FF0066"></rect><g transform="translate(472.5118122937255 266.8234625556351)"><path d="M141.3 -196.9C180.3 -166.1 207.1 -121.1 222.8 -72.5C238.4 -23.9 242.8 28.2 228.9 75.4C215 122.6 182.7 164.9 141.5 196.5C100.3 228.1 50.2 249 0 249C-50.2 249 -100.3 228.1 -138 195.3C-175.8 162.6 -201.1 118.1 -213.4 71.4C-225.8 24.7 -225.2 -24.2 -211.7 -69.7C-198.2 -115.3 -171.7 -157.6 -134.2 -188.9C-96.8 -220.2 -48.4 -240.6 1.4 -242.5C51.1 -244.4 102.3 -227.8 141.3 -196.9" fill="#BB004B"></path></g></svg>