<svg id="visual" viewBox="0 0 960 540" width="960" height="540" xmlns="http://www.w3.org/2000/svg" xmlns:xlink="http://www.w3.org/1999/xlink" version="1.1"><rect x="0" y="0" width="960" height="540" fill="#001220"></rect><defs><linearGradient id="grad1_0" x1="43.8%" y1="0%" x2="100%" y2="100%"><stop offset="14.444444444444446%" stop-color="#0066ff" stop-opacity="1"></stop><stop offset="85.55555555555554%" stop-color="#0066ff" stop-opacity="1"></stop></linearGradient></defs><defs><linearGradient id="grad1_1" x1="43.8%" y1="0%" x2="100%" y2="100%"><stop offset="14.444444444444446%" stop-color="#0066ff" stop-opacity="1"></stop><stop offset="85.55555555555554%" stop-color="#005ddf" stop-opacity="1"></stop></linearGradient></defs><defs><linearGradient id="grad1_2" x1="43.8%" y1="0%" x2="100%" y2="100%"><stop offset="14.444444444444446%" stop-color="#0052bd" stop-opacity="1"></stop><stop offset="85.55555555555554%" stop-color="#005ddf" stop-opacity="1"></stop></linearGradient></defs><defs><linearGradient id="grad1_3" x1="43.8%" y1="0%" x2="100%" y2="100%"><stop offset="14.444444444444446%" stop-color="#0052bd" stop-opacity="1"></stop><stop offset="85.55555555555554%" stop-color="#00469c" stop-opacity="1"></stop></linearGradient></defs><defs><linearGradient id="grad1_4" x1="43.8%" y1="0%" x2="100%" y2="100%"><stop offset="14.444444444444446%" stop-color="#003a7b" stop-opacity="1"></stop><stop offset="85.55555555555554%" stop-color="#00469c" stop-opacity="1"></stop></linearGradient></defs><defs><linearGradient id="grad1_5" x1="43.8%" y1="0%" x2="100%" y2="100%"><stop offset="14.444444444444446%" stop-color="#003a7b" stop-opacity="1"></stop><stop offset="85.55555555555554%" stop-color="#002d5b" stop-opacity="1"></stop></linearGradient></defs><defs><linearGradient id="grad1_6" x1="43.8%" y1="0%" x2="100%" y2="100%"><stop offset="14.444444444444446%" stop-color="#00203c" stop-opacity="1"></stop><stop offset="85.55555555555554%" stop-color="#002d5b" stop-opacity="1"></stop></linearGradient></defs><defs><linearGradient id="grad1_7" x1="43.8%" y1="0%" x2="100%" y2="100%"><stop offset="14.444444444444446%" stop-color="#00203c" stop-opacity="1"></stop><stop offset="85.55555555555554%" stop-color="#001220" stop-opacity="1"></stop></linearGradient></defs><defs><linearGradient id="grad2_0" x1="0%" y1="0%" x2="56.3%" y2="100%"><stop offset="14.444444444444446%" stop-color="#0066ff" stop-opacity="1"></stop><stop offset="85.55555555555554%" stop-color="#0066ff" stop-opacity="1"></stop></linearGradient></defs><defs><linearGradient id="grad2_1" x1="0%" y1="0%" x2="56.3%" y2="100%"><stop offset="14.444444444444446%" stop-color="#005ddf" stop-opacity="1"></stop><stop offset="85.55555555555554%" stop-color="#0066ff" stop-opacity="1"></stop></linearGradient></defs><defs><linearGradient id="grad2_2" x1="0%" y1="0%" x2="56.3%" y2="100%"><stop offset="14.444444444444446%" stop-color="#005ddf" stop-opacity="1"></stop><stop offset="85.55555555555554%" stop-color="#0052bd" stop-opacity="1"></stop></linearGradient></defs><defs><linearGradient id="grad2_3" x1="0%" y1="0%" x2="56.3%" y2="100%"><stop offset="14.444444444444446%" stop-color="#00469c" stop-opacity="1"></stop><stop offset="85.55555555555554%" stop-color="#0052bd" stop-opacity="1"></stop></linearGradient></defs><defs><linearGradient id="grad2_4" x1="0%" y1="0%" x2="56.3%" y2="100%"><stop offset="14.444444444444446%" stop-color="#00469c" stop-opacity="1"></stop><stop offset="85.55555555555554%" stop-color="#003a7b" stop-opacity="1"></stop></linearGradient></defs><defs><linearGradient id="grad2_5" x1="0%" y1="0%" x2="56.3%" y2="100%"><stop offset="14.444444444444446%" stop-color="#002d5b" stop-opacity="1"></stop><stop offset="85.55555555555554%" stop-color="#003a7b" stop-opacity="1"></stop></linearGradient></defs><defs><linearGradient id="grad2_6" x1="0%" y1="0%" x2="56.3%" y2="100%"><stop offset="14.444444444444446%" stop-color="#002d5b" stop-opacity="1"></stop><stop offset="85.55555555555554%" stop-color="#00203c" stop-opacity="1"></stop></linearGradient></defs><defs><linearGradient id="grad2_7" x1="0%" y1="0%" x2="56.3%" y2="100%"><stop offset="14.444444444444446%" stop-color="#001220" stop-opacity="1"></stop><stop offset="85.55555555555554%" stop-color="#00203c" stop-opacity="1"></stop></linearGradient></defs><g transform="translate(960, 0)"><path d="M0 486C-68.7 485.3 -137.4 484.6 -186 449C-234.5 413.5 -262.9 343.1 -289.9 289.9C-316.9 236.8 -342.6 200.8 -375.1 155.4C-407.6 109.9 -446.8 55 -486 0L0 0Z" fill="#00192e"></path><path d="M0 425.3C-60.1 424.6 -120.3 424 -162.7 392.9C-205.2 361.8 -230 300.2 -253.7 253.7C-277.3 207.2 -299.8 175.7 -328.2 135.9C-356.6 96.2 -390.9 48.1 -425.2 0L0 0Z" fill="#00264b"></path><path d="M0 364.5C-51.5 364 -103.1 363.4 -139.5 336.8C-175.9 310.1 -197.2 257.3 -217.4 217.4C-237.7 177.6 -257 150.6 -281.3 116.5C-305.7 82.4 -335.1 41.2 -364.5 0L0 0Z" fill="#00336b"></path><path d="M0 303.8C-43 303.3 -85.9 302.8 -116.2 280.6C-146.6 258.4 -164.3 214.4 -181.2 181.2C-198.1 148 -214.1 125.5 -234.4 97.1C-254.7 68.7 -279.2 34.4 -303.7 0L0 0Z" fill="#00408b"></path><path d="M0 243C-34.4 242.6 -68.7 242.3 -93 224.5C-117.3 206.7 -131.4 171.5 -145 145C-158.5 118.4 -171.3 100.4 -187.5 77.7C-203.8 55 -223.4 27.5 -243 0L0 0Z" fill="#004cad"></path><path d="M0 182.3C-25.8 182 -51.5 181.7 -69.7 168.4C-87.9 155 -98.6 128.7 -108.7 108.7C-118.9 88.8 -128.5 75.3 -140.7 58.3C-152.8 41.2 -167.5 20.6 -182.2 0L0 0Z" fill="#0058ce"></path><path d="M0 121.5C-17.2 121.3 -34.4 121.1 -46.5 112.3C-58.6 103.4 -65.7 85.8 -72.5 72.5C-79.2 59.2 -85.7 50.2 -93.8 38.8C-101.9 27.5 -111.7 13.7 -121.5 0L0 0Z" fill="#0062ef"></path><path d="M0 60.8C-8.6 60.7 -17.2 60.6 -23.2 56.1C-29.3 51.7 -32.9 42.9 -36.2 36.2C-39.6 29.6 -42.8 25.1 -46.9 19.4C-50.9 13.7 -55.8 6.9 -60.7 0L0 0Z" fill="#0066ff"></path></g><g transform="translate(0, 540)"><path d="M0 -486C60.9 -465.7 121.7 -445.4 172.6 -416.7C223.5 -387.9 264.4 -350.7 313.2 -313.2C362.1 -275.8 418.9 -238.2 449 -186C479.1 -133.7 482.6 -66.9 486 0L0 0Z" fill="#00192e"></path><path d="M0 -425.2C53.2 -407.5 106.5 -389.8 151 -364.6C195.5 -339.4 231.3 -306.8 274.1 -274.1C316.8 -241.3 366.5 -208.4 392.9 -162.7C419.2 -117 422.2 -58.5 425.3 0L0 0Z" fill="#00264b"></path><path d="M0 -364.5C45.6 -349.3 91.3 -334.1 129.4 -312.5C167.6 -290.9 198.3 -263 234.9 -234.9C271.6 -206.9 314.2 -178.7 336.8 -139.5C359.3 -100.3 361.9 -50.2 364.5 0L0 0Z" fill="#00336b"></path><path d="M0 -303.7C38 -291.1 76.1 -278.4 107.9 -260.4C139.7 -242.4 165.2 -219.2 195.8 -195.8C226.3 -172.4 261.8 -148.9 280.6 -116.2C299.4 -83.6 301.6 -41.8 303.8 0L0 0Z" fill="#00408b"></path><path d="M0 -243C30.4 -232.9 60.9 -222.7 86.3 -208.3C111.7 -194 132.2 -175.3 156.6 -156.6C181.1 -137.9 209.4 -119.1 224.5 -93C239.6 -66.9 241.3 -33.4 243 0L0 0Z" fill="#004cad"></path><path d="M0 -182.2C22.8 -174.6 45.6 -167 64.7 -156.3C83.8 -145.5 99.1 -131.5 117.5 -117.5C135.8 -103.4 157.1 -89.3 168.4 -69.7C179.7 -50.2 181 -25.1 182.3 0L0 0Z" fill="#0058ce"></path><path d="M0 -121.5C15.2 -116.4 30.4 -111.4 43.1 -104.2C55.9 -97 66.1 -87.7 78.3 -78.3C90.5 -69 104.7 -59.6 112.3 -46.5C119.8 -33.4 120.6 -16.7 121.5 0L0 0Z" fill="#0062ef"></path><path d="M0 -60.7C7.6 -58.2 15.2 -55.7 21.6 -52.1C27.9 -48.5 33 -43.8 39.2 -39.2C45.3 -34.5 52.4 -29.8 56.1 -23.2C59.9 -16.7 60.3 -8.4 60.8 0L0 0Z" fill="#0066ff"></path></g></svg>