<?xml version="1.0" standalone="no"?>
<!DOCTYPE svg PUBLIC "-//W3C//DTD SVG 20010904//EN"
 "http://www.w3.org/TR/2001/REC-SVG-20010904/DTD/svg10.dtd">
<svg version="1.0" xmlns="http://www.w3.org/2000/svg"
 width="1345.000000pt" height="613.000000pt" viewBox="0 0 1345.000000 613.000000"
 preserveAspectRatio="xMidYMid meet">

<g transform="translate(0.000000,613.000000) scale(0.100000,-0.100000)"
fill="#000000" stroke="none">
<path d="M0 3065 l0 -3065 6720 0 6720 0 0 3065 0 3065 -6720 0 -6720 0 0
-3065z m12535 941 c-63 -19 -58 -40 25 -96 12 -8 29 -20 37 -26 18 -12 40 -71
49 -131 5 -36 2 -48 -24 -85 -33 -48 -106 -118 -123 -118 -5 0 -7 -4 -4 -10 3
-5 15 -10 26 -10 36 0 19 -19 -28 -33 -36 -11 -52 -12 -62 -3 -11 9 -13 5 -8
-19 4 -17 9 -52 12 -80 4 -27 9 -63 12 -80 10 -56 -13 -12 -26 50 -18 83 -69
214 -97 248 -13 16 -24 33 -24 38 0 5 -9 9 -21 9 -15 0 -19 -4 -15 -15 3 -8 9
-23 13 -32 4 -10 -17 11 -46 47 -60 75 -102 98 -180 99 -55 1 -232 -35 -241
-49 -6 -9 -147 -40 -180 -40 -11 0 -20 -7 -20 -15 0 -13 -3 -14 -14 -3 -12 10
-12 15 -2 23 7 6 16 22 20 38 6 25 19 32 56 29 24 -3 160 30 160 38 0 4 9 10
20 13 11 3 20 12 20 21 0 9 8 16 20 16 11 0 20 4 20 9 0 5 20 14 45 20 41 10
45 14 45 41 0 16 5 32 10 35 6 3 10 17 10 31 0 22 -3 24 -22 18 -13 -3 -24
-11 -26 -15 -2 -5 -12 -9 -22 -9 -10 0 -31 -13 -46 -29 -25 -26 -29 -28 -39
-14 -22 30 -119 17 -130 -17 -4 -11 -11 -18 -16 -15 -5 4 -12 0 -15 -8 -6 -16
-66 -19 -76 -4 -9 15 -38 -10 -38 -32 0 -14 -7 -17 -29 -13 -38 5 -47 -12 -22
-47 18 -26 19 -30 5 -41 -11 -10 -14 -28 -12 -69 2 -31 7 -59 11 -62 11 -8 -5
-43 -21 -47 -9 -2 -13 8 -12 30 3 57 0 68 -17 68 -15 0 -15 1 1 13 12 9 17 23
14 47 l-3 35 -49 -2 -49 -2 28 25 c15 13 34 24 42 24 7 0 13 6 13 13 0 9 -10
12 -30 9 -22 -3 -30 0 -30 11 0 8 -6 18 -12 21 -19 7 20 36 48 36 13 0 29 7
37 14 15 16 125 56 152 56 8 0 15 4 15 9 0 4 26 16 58 25 31 10 62 19 67 21 6
2 183 3 395 3 315 0 378 -2 345 -12z m75 4 c0 -5 -4 -10 -10 -10 -5 0 -10 5
-10 10 0 6 5 10 10 10 6 0 10 -4 10 -10z m-60 -35 c0 -8 -7 -15 -15 -15 -8 0
-15 7 -15 15 0 8 7 15 15 15 8 0 15 -7 15 -15z m-620 -70 c0 -14 -4 -25 -10
-25 -5 0 -10 11 -10 25 0 14 5 25 10 25 6 0 10 -11 10 -25z m-9853 -37 c-3
-13 -11 -51 -18 -85 -8 -44 -16 -63 -26 -63 -12 0 -14 8 -8 38 20 108 27 132
42 132 11 0 14 -7 10 -22z m2317 -40 c-8 -35 -16 -73 -19 -85 -5 -20 -12 -23
-48 -23 -70 0 -86 36 -44 97 17 25 29 33 53 33 23 0 33 5 37 20 3 11 12 20 20
20 13 0 14 -7 1 -62z m-2664 13 c0 -57 16 -59 41 -6 30 63 52 58 59 -14 l5
-53 27 56 c15 31 34 56 42 56 12 0 9 -13 -12 -57 -45 -93 -52 -103 -72 -103
-16 0 -19 9 -22 52 l-3 52 -25 -50 c-43 -85 -70 -64 -70 57 0 37 4 49 15 49
11 0 15 -11 15 -39z m1040 24 c0 -8 7 -15 15 -15 22 0 18 -21 -5 -27 -11 -3
-20 -13 -20 -22 0 -9 -3 -26 -6 -38 -5 -17 -2 -23 10 -23 9 0 16 -5 16 -11 0
-6 -12 -9 -27 -7 -27 3 -28 5 -28 63 0 39 5 66 15 78 18 21 30 22 30 2z m292
-32 c23 -49 28 -47 42 20 4 15 13 27 22 27 12 0 15 -6 11 -22 -3 -13 -11 -49
-17 -81 -14 -71 -35 -74 -66 -8 -23 47 -28 46 -38 -11 -5 -25 -12 -38 -23 -38
-11 0 -14 7 -10 23 3 12 11 48 17 80 14 71 32 74 62 10z m378 32 c0 -8 5 -15
10 -15 6 0 10 -7 10 -15 0 -8 -6 -15 -14 -15 -16 0 -26 -21 -26 -56 0 -14 4
-22 10 -19 6 3 10 -1 10 -9 0 -20 -46 -21 -53 -2 -3 8 -2 30 3 47 13 44 -7 57
-38 25 -23 -22 -23 -25 -8 -55 16 -30 16 -31 -3 -31 -10 0 -22 7 -25 16 -6 16
-8 16 -24 0 -32 -29 -48 -18 -18 13 27 28 27 30 12 59 -20 39 -20 42 3 42 11
0 21 -9 25 -22 l6 -23 19 23 c11 12 31 22 45 22 16 0 26 6 26 15 0 8 7 15 15
15 8 0 15 -7 15 -15z m164 6 c4 -5 3 -16 0 -25 -5 -14 -8 -14 -21 0 -36 35
-99 -29 -79 -81 14 -37 66 -24 66 16 0 11 7 19 16 19 13 0 15 -7 10 -32 -7
-37 -20 -48 -58 -48 -39 0 -58 10 -69 37 -11 30 16 97 46 112 26 12 82 14 89
2z m144 -3 c34 -34 -11 -108 -65 -108 -22 0 -32 -5 -36 -20 -3 -11 -12 -20
-20 -20 -12 0 -12 9 0 68 8 37 16 73 18 80 6 16 87 16 103 0z m69 -10 c-18
-69 -19 -105 -4 -111 28 -11 55 20 62 74 6 44 26 72 40 57 11 -11 -25 -124
-45 -140 -27 -22 -73 -23 -90 -3 -12 15 -8 92 6 130 10 25 37 18 31 -7z m241
9 c6 -7 7 -18 2 -26 -7 -12 -11 -11 -25 2 -22 22 -30 21 -55 -5 -31 -33 -37
-68 -14 -85 10 -7 25 -11 34 -7 8 3 21 8 28 11 6 3 12 -2 12 -10 0 -29 -78
-38 -104 -11 -29 29 -10 109 31 133 25 15 79 13 91 -2z m-2052 -39 c18 -41 7
-58 -38 -58 -27 0 -38 -4 -35 -12 2 -8 16 -12 32 -10 19 2 26 -1 23 -10 -6
-16 -32 -22 -64 -14 -19 5 -24 13 -24 40 0 68 83 118 106 64z m178 6 c9 -23
-2 -36 -22 -25 -25 13 -52 -5 -52 -34 0 -30 14 -39 39 -25 11 6 22 6 25 1 10
-16 -22 -32 -56 -29 -30 3 -33 6 -36 39 -2 26 3 43 20 62 26 30 72 36 82 11z
m112 2 c37 -38 1 -116 -54 -116 -55 0 -67 41 -29 97 24 36 58 43 83 19z m137
1 c7 -9 10 -9 14 1 2 6 18 12 34 12 22 0 30 -6 35 -25 9 -35 -9 -99 -28 -103
-14 -3 -15 2 -6 38 8 29 8 44 0 52 -17 17 -39 -7 -47 -53 -4 -25 -12 -39 -22
-39 -12 0 -13 8 -8 40 13 74 -28 78 -46 4 -7 -27 -17 -44 -26 -44 -11 0 -13 7
-10 23 4 12 9 41 13 63 6 41 7 42 47 42 23 1 45 -5 50 -11z m203 -4 c7 -10 14
-28 14 -40 0 -21 -5 -23 -46 -23 -40 0 -45 -2 -34 -15 8 -9 21 -13 36 -9 14 4
24 2 24 -5 0 -12 -40 -24 -67 -19 -9 2 -22 15 -27 30 -8 22 -5 34 15 62 27 40
63 48 85 19z m271 -6 c15 -32 5 -74 -20 -92 -30 -21 -74 -19 -87 4 -16 31 -12
48 18 81 34 37 74 40 89 7z m341 -2 c18 -38 6 -55 -40 -55 -27 0 -38 -4 -35
-12 2 -8 16 -12 32 -10 19 2 26 -1 23 -10 -6 -17 -56 -22 -74 -7 -21 17 -17
64 9 93 29 34 70 35 85 1z m918 0 c3 -13 2 -42 -3 -62 -8 -35 -12 -38 -47 -41
-50 -4 -64 9 -46 43 10 18 22 25 43 25 19 0 27 4 24 13 -2 6 -16 11 -31 9 -28
-3 -29 -2 -20 22 4 10 18 16 40 16 27 0 35 -5 40 -25z m104 11 c0 -8 -9 -18
-20 -21 -13 -4 -24 -21 -31 -51 -7 -27 -17 -44 -26 -44 -11 0 -13 7 -10 23 4
12 9 41 13 65 6 40 8 42 40 42 23 0 34 -5 34 -14z m230 -7 c0 -17 -4 -20 -24
-15 -14 3 -27 2 -31 -4 -3 -5 6 -12 20 -16 17 -4 25 -13 25 -29 0 -31 -23 -47
-62 -43 -37 3 -40 23 -4 23 35 0 41 11 11 19 -50 13 -23 86 32 86 27 0 33 -4
33 -21z m155 12 c-3 -5 0 -13 6 -17 8 -5 7 -9 -2 -15 -7 -4 -19 -4 -25 2 -17
14 -43 0 -50 -28 -8 -30 11 -46 37 -32 12 6 20 5 25 -2 15 -25 -61 -40 -84
-17 -18 18 -14 48 11 85 17 26 29 33 55 33 18 0 31 -4 27 -9z m121 -8 c19 -26
17 -57 -7 -87 -17 -22 -28 -27 -58 -24 -34 3 -36 5 -39 39 -6 66 69 117 104
72z m128 5 c5 -10 7 -10 12 0 3 6 19 12 35 12 22 0 30 -6 35 -25 9 -36 -9 -99
-28 -103 -15 -3 -15 2 -7 33 14 48 6 69 -20 56 -11 -6 -21 -26 -25 -51 -4 -27
-11 -40 -22 -40 -12 0 -14 8 -9 44 4 26 3 46 -3 50 -14 8 -42 -21 -42 -44 0
-29 -11 -50 -26 -50 -15 0 -14 6 7 93 9 35 12 37 49 37 21 0 41 -6 44 -12z
m-374 -103 c0 -8 -7 -15 -15 -15 -8 0 -15 7 -15 15 0 8 7 15 15 15 8 0 15 -7
15 -15z m7560 -79 c0 -17 -43 -46 -68 -46 -11 0 -25 7 -32 15 -10 12 -10 15 3
15 8 0 17 7 21 15 7 20 76 21 76 1z m-420 -35 c5 -11 9 -28 9 -38 -1 -17 -2
-17 -6 0 -5 18 -23 24 -23 6 0 -6 -7 -3 -16 6 -18 18 -12 45 10 45 9 0 20 -9
26 -19z m-75 -76 c-16 -7 -32 -11 -35 -9 -7 8 24 24 45 23 15 0 13 -4 -10 -14z
m84 -11 c18 33 29 33 37 1 3 -13 12 -30 20 -36 12 -10 13 -14 1 -28 -8 -9 -24
-43 -37 -76 -21 -56 -21 -65 -10 -141 11 -70 11 -91 -5 -158 -19 -86 -15 -131
15 -169 13 -16 22 -46 25 -79 16 -201 16 -208 -1 -243 -9 -19 -20 -33 -24 -30
-20 13 -33 168 -41 495 -5 195 -11 387 -14 425 -5 63 -4 67 8 41 l12 -28 14
26z m601 7 c17 -34 11 -41 -32 -41 -49 0 -88 9 -88 19 0 11 62 40 87 40 12 1
27 -8 33 -18z m-340 -21 c0 -5 -7 -10 -15 -10 -8 0 -15 5 -15 10 0 6 7 10 15
10 8 0 15 -4 15 -10z m-53 -16 c-3 -3 -12 -4 -19 -1 -8 3 -5 6 6 6 11 1 17 -2
13 -5z m-430 -86 c-2 -18 -4 -6 -4 27 0 33 2 48 4 33 2 -15 2 -42 0 -60z m360
76 c-3 -3 -12 -4 -19 -1 -8 3 -5 6 6 6 11 1 17 -2 13 -5z m-200 -10 c-3 -3
-12 -4 -19 -1 -8 3 -5 6 6 6 11 1 17 -2 13 -5z m977 -154 c-1 -89 -22 -146
-25 -70 -2 36 -3 39 -6 13 -3 -22 -8 -30 -18 -27 -10 4 -12 -1 -9 -18 2 -13 2
-17 -2 -10 -3 6 -12 12 -19 12 -7 0 -16 6 -18 13 -3 6 -5 -6 -5 -28 0 -22 2
-34 5 -27 9 23 23 12 23 -18 0 -31 -16 -41 -26 -16 -3 8 -11 43 -19 77 -14 70
-5 99 30 99 49 0 65 11 65 44 0 20 5 33 13 33 9 0 12 -22 11 -77z m-965 10
c36 0 23 -34 -15 -38 -26 -3 -33 1 -38 20 -11 43 -8 53 12 35 10 -10 29 -17
41 -17z m1071 9 c0 -3 -9 -9 -20 -12 -19 -5 -27 3 -15 15 8 7 35 6 35 -3z
m190 -32 c0 -8 4 -7 11 3 8 11 12 12 16 3 5 -15 33 -18 33 -4 0 12 36 23 83
26 31 1 37 -1 31 -14 -10 -25 -10 -50 1 -53 6 -2 11 12 13 30 3 24 8 32 23 32
11 0 18 -4 15 -9 -4 -5 9 -6 29 -1 24 5 38 4 45 -5 6 -7 25 -16 43 -20 30 -7
29 -8 -38 -25 -38 -10 -65 -19 -60 -20 12 -3 -42 -14 -155 -31 -47 -7 -88 -17
-92 -23 -11 -16 -10 -111 2 -141 8 -22 13 -24 29 -15 11 5 29 10 40 10 12 0
21 4 21 8 0 5 72 20 160 33 88 13 160 27 160 31 0 4 4 8 9 8 10 0 3 -67 -10
-92 -5 -9 -9 -28 -9 -42 0 -14 -4 -26 -10 -26 -5 0 -7 -8 -4 -17 5 -15 4 -16
-5 -3 -9 13 -12 12 -26 -5 -11 -14 -13 -15 -9 -4 3 10 1 20 -4 23 -5 3 -7 17
-4 31 3 20 0 25 -16 25 -45 0 -72 -18 -72 -49 0 -16 -5 -33 -10 -36 -6 -4 -8
-11 -5 -16 4 -5 1 -9 -5 -9 -6 0 -8 -6 -4 -12 4 -7 -2 -5 -13 5 -11 10 -27 15
-37 11 -11 -4 -16 -1 -16 11 0 9 -5 13 -10 10 -6 -4 -7 -11 -4 -17 4 -7 2 -8
-4 -4 -6 4 -8 14 -5 24 5 14 3 14 -16 -3 -22 -19 -24 -19 -36 -2 -6 9 -17 17
-23 17 -6 0 -16 15 -22 34 -8 25 -16 34 -29 31 -10 -2 -22 0 -28 3 -6 4 -13
76 -18 165 l-7 159 21 -12 c12 -6 21 -16 21 -23z m-1299 -61 c0 -21 0 -21 9 2
13 31 30 28 29 -5 -1 -31 -16 -86 -18 -65 -1 6 -7 12 -15 12 -8 0 -17 -6 -19
-12 -3 -7 -6 -2 -6 12 -1 14 -4 43 -8 65 -6 37 -5 39 10 26 10 -7 17 -23 18
-35z m1236 2 c-3 -7 -5 -2 -5 12 0 14 2 19 5 13 2 -7 2 -19 0 -25z m-512 -2
c10 -10 11 -16 2 -25 -18 -18 -27 -13 -27 14 0 28 6 31 25 11z m21 -170 c-9
-50 -23 -111 -31 -136 -9 -25 -13 -31 -10 -15 3 17 16 93 28 170 13 84 23 126
25 106 2 -19 -4 -75 -12 -125z m946 116 c6 -43 -1 -49 -59 -58 -24 -3 -43 -9
-43 -13 0 -4 -33 -12 -72 -19 -79 -12 -88 -8 -88 39 0 41 20 55 100 69 41 7
80 13 85 14 6 2 24 3 41 4 30 1 32 -1 36 -36z m-655 -9 c-3 -10 -5 -4 -5 12 0
17 2 24 5 18 2 -7 2 -21 0 -30z m-17 2 c0 -14 -4 -25 -9 -25 -4 0 -6 11 -3 25
2 14 6 25 8 25 2 0 4 -11 4 -25z m-489 -55 l-10 -25 0 27 c-1 14 2 35 6 45 7
17 8 17 11 -2 1 -12 -2 -32 -7 -45z m799 -17 c0 -29 -16 -38 -23 -13 -7 29 3
66 14 48 5 -7 9 -23 9 -35z m-7264 15 c-2 -13 -19 -93 -37 -178 -18 -85 -42
-202 -54 -260 l-21 -105 -41 -3 c-36 -3 -42 0 -45 19 -3 22 -3 23 -22 3 -15
-15 -34 -19 -86 -19 -56 0 -69 4 -92 25 -34 31 -48 69 -48 125 0 95 68 212
137 237 18 7 33 16 33 20 0 4 23 8 50 8 28 0 50 -3 50 -7 0 -5 12 -13 26 -20
29 -14 26 -20 50 95 l17 82 44 0 c40 0 43 -2 39 -22z m7031 -10 c-3 -8 -6 -5
-6 6 -1 11 2 17 5 13 3 -3 4 -12 1 -19z m-12037 -15 c0 -5 -9 -48 -20 -97 -11
-50 -20 -94 -20 -98 0 -5 50 -7 112 -6 l112 3 21 100 21 100 46 3 46 3 -24
-108 c-13 -59 -38 -179 -56 -265 l-33 -158 -42 0 c-51 0 -51 -1 -23 120 30
130 37 120 -89 120 l-109 0 -16 -72 c-9 -40 -21 -94 -27 -120 l-11 -48 -45 0
c-43 0 -45 1 -39 24 7 30 106 496 106 502 0 2 20 4 45 4 25 0 45 -3 45 -7z
m11120 -54 c-6 -18 -10 -49 -10 -66 0 -18 -5 -33 -11 -33 -15 0 -5 106 12 126
17 21 20 13 9 -27z m707 -111 c-2 -24 -4 -7 -4 37 0 44 2 63 4 43 2 -21 2 -57
0 -80z m-11227 52 c0 -5 6 -10 13 -10 18 0 51 -38 67 -77 8 -22 10 -51 5 -88
l-6 -55 -135 0 -134 0 0 -24 c0 -23 6 -31 44 -63 16 -14 76 -18 76 -5 0 4 14
13 30 21 34 14 54 5 63 -29 3 -14 -6 -26 -37 -47 -35 -24 -51 -28 -112 -28
-67 0 -72 2 -109 36 -33 32 -39 44 -43 92 -6 80 19 153 74 211 25 25 56 49 69
52 14 3 25 10 25 15 0 5 25 9 55 9 30 0 55 -4 55 -10z m274 -15 l-6 -25 33 17
c19 10 36 21 37 26 4 7 62 10 62 2 0 -2 -5 -26 -11 -53 -8 -41 -13 -49 -29
-45 -30 8 -85 -25 -102 -61 -9 -18 -27 -83 -39 -145 l-24 -111 -43 0 c-41 0
-44 2 -40 23 3 12 22 106 44 210 l39 187 43 0 c40 0 42 -1 36 -25z m386 15 c0
-5 6 -10 13 -10 18 0 51 -38 67 -77 8 -22 10 -51 5 -88 l-6 -55 -135 0 -134 0
0 -24 c0 -23 6 -31 44 -63 16 -14 72 -18 78 -5 2 4 17 15 34 24 l32 18 15 -33
c16 -31 15 -33 -6 -49 -42 -33 -85 -48 -140 -48 -50 0 -59 4 -97 38 -36 33
-42 43 -47 94 -10 104 56 232 134 260 18 7 33 16 33 20 0 4 25 8 55 8 30 0 55
-4 55 -10z m424 -122 c21 -163 23 -169 40 -137 13 25 34 61 79 139 15 25 36
64 49 88 20 40 24 42 65 42 48 0 51 -4 23 -40 -11 -14 -20 -29 -20 -33 0 -5
-8 -21 -19 -35 -10 -15 -29 -47 -43 -72 -24 -44 -45 -79 -90 -157 -11 -21 -35
-63 -52 -94 -41 -73 -68 -106 -102 -124 -51 -27 -154 -14 -154 19 0 8 10 27
23 42 21 24 26 25 46 14 32 -17 66 -5 88 30 19 31 19 32 -4 188 -13 86 -26
181 -29 210 l-6 52 45 0 44 0 17 -132z m518 125 c2 -5 17 -15 33 -23 42 -22
60 -64 59 -135 -1 -82 -43 -168 -99 -204 -22 -14 -43 -30 -47 -36 -4 -5 -40
-10 -81 -10 -67 0 -75 2 -105 31 -20 18 -37 46 -43 70 -25 108 43 252 137 286
19 6 34 16 34 20 0 10 107 11 112 1z m288 -2 c0 -4 -11 -58 -25 -119 -30 -133
-31 -162 -6 -190 18 -21 71 -31 71 -14 0 5 11 14 25 20 31 14 51 62 76 182 28
136 25 130 70 130 27 0 39 -4 39 -15 0 -8 -18 -99 -40 -202 -22 -103 -40 -191
-40 -195 0 -5 -20 -8 -44 -8 -39 0 -44 2 -39 20 7 25 0 25 -23 3 -11 -11 -38
-19 -79 -21 -60 -4 -63 -3 -93 29 -41 44 -42 88 -6 262 l27 127 44 0 c23 0 43
-4 43 -9z m430 -16 l0 -25 40 25 c44 28 96 34 87 11 -3 -8 -9 -31 -13 -50 -4
-25 -12 -36 -24 -36 -37 0 -80 -23 -99 -53 -10 -18 -29 -75 -40 -127 -33 -150
-27 -140 -76 -140 l-43 0 18 83 c10 45 30 139 45 210 l28 127 39 0 c34 0 38
-3 38 -25z m380 17 c0 -4 14 -13 30 -19 l30 -11 -21 -37 c-18 -29 -26 -35 -43
-30 -12 3 -40 9 -63 12 -49 6 -93 -16 -93 -47 0 -20 7 -23 84 -40 55 -12 96
-48 96 -84 0 -39 -28 -95 -58 -113 -15 -10 -30 -22 -34 -28 -4 -5 -47 -10 -95
-10 -78 0 -91 3 -112 22 l-24 23 19 35 c10 19 21 35 23 35 15 0 71 -25 71 -32
0 -4 18 -8 40 -8 22 0 40 4 40 9 0 5 9 11 20 14 13 3 20 14 20 30 0 23 -6 26
-75 42 -81 18 -105 38 -105 88 0 47 37 106 78 125 20 9 39 20 40 25 5 9 132 9
132 -1z m533 -2 c7 -6 22 -18 34 -28 12 -9 25 -29 28 -43 6 -22 2 -28 -24 -39
-17 -7 -31 -17 -31 -22 0 -6 -13 4 -29 21 -32 34 -55 38 -106 17 -69 -29 -101
-157 -51 -210 21 -24 76 -37 76 -18 0 4 18 15 39 26 31 14 43 16 60 7 32 -18
26 -46 -16 -72 -21 -13 -44 -29 -51 -36 -8 -8 -38 -13 -72 -13 -54 0 -62 3
-101 38 -38 35 -43 44 -47 95 -6 78 19 151 73 210 26 29 55 49 74 53 17 4 28
10 25 15 -7 12 104 11 119 -1z m350 0 c7 -6 23 -18 35 -28 37 -28 38 -86 4
-242 l-28 -135 -44 -3 c-39 -3 -42 -1 -37 17 6 25 -8 28 -21 4 -7 -12 -27 -18
-75 -21 -60 -4 -66 -2 -91 24 -24 26 -27 35 -23 83 3 46 9 58 42 90 38 35 41
36 127 39 l88 4 0 28 c0 58 -48 74 -136 44 -25 -8 -48 -14 -50 -12 -2 2 -5 19
-6 38 -3 31 0 35 37 49 22 8 42 19 43 23 5 12 121 10 135 -2z m271 -15 l-6
-25 33 17 c19 10 36 21 37 26 4 7 62 10 62 2 0 -2 -5 -26 -11 -53 -8 -41 -13
-49 -29 -45 -30 8 -85 -25 -102 -61 -9 -18 -27 -83 -39 -145 l-24 -111 -43 0
c-41 0 -44 2 -40 23 3 12 22 106 44 210 l39 187 43 0 c40 0 42 -1 36 -25z
m816 16 c0 -5 11 -12 25 -15 30 -8 31 -18 8 -58 -15 -24 -22 -28 -43 -23 -92
24 -150 12 -150 -29 0 -26 12 -32 105 -50 19 -4 39 -19 54 -42 22 -32 23 -38
12 -75 -12 -39 -22 -52 -72 -94 -32 -27 -186 -30 -212 -3 -9 9 -22 18 -29 21
-10 3 -9 9 5 24 9 11 17 25 17 31 0 6 4 13 8 16 12 7 82 -15 82 -26 0 -18 70
-8 95 14 14 12 25 25 25 29 0 19 -33 37 -80 43 -67 9 -100 40 -100 93 0 51 39
108 85 124 19 7 35 17 35 21 0 4 29 8 65 8 36 0 65 -4 65 -9z m7273 -28 c-7
-2 -19 -2 -25 0 -7 3 -2 5 12 5 14 0 19 -2 13 -5z m-1353 -105 c0 -15 5 -28
10 -28 6 0 10 -9 10 -20 0 -14 -7 -20 -24 -20 -18 0 -25 7 -30 32 -3 17 -3 47
0 66 6 33 8 34 20 17 8 -10 14 -31 14 -47z m416 24 c-18 -16 -18 -16 -6 6 6
13 14 21 18 18 3 -4 -2 -14 -12 -24z m261 -99 c-2 -16 -4 -5 -4 22 0 28 2 40
4 28 2 -13 2 -35 0 -50z m-6276 -110 c9 -24 4 -40 -36 -120 -42 -86 -48 -93
-75 -93 -17 0 -30 2 -30 4 0 2 11 29 25 59 14 33 20 59 15 62 -16 10 -11 48
10 83 15 25 27 32 50 32 24 0 33 -6 41 -27z m5956 -13 c7 0 13 -4 13 -8 0 -13
-23 -32 -38 -32 -11 0 -12 3 -3 14 8 10 9 16 1 21 -5 3 -10 16 -9 28 l0 22 11
-22 c6 -13 17 -23 25 -23z m893 10 c0 -5 -7 -10 -15 -10 -8 0 -15 5 -15 10 0
6 7 10 15 10 8 0 15 -4 15 -10z m-990 -113 c0 16 38 12 44 -4 4 -9 4 -18 1
-21 -3 -3 -5 1 -5 9 0 9 -3 10 -8 3 -4 -6 -26 -13 -49 -17 -44 -5 -51 1 -37
37 5 14 8 14 30 -1 13 -8 24 -11 24 -6z m840 -17 c0 -5 -2 -10 -4 -10 -3 0 -8
5 -11 10 -3 6 -1 10 4 10 6 0 11 -4 11 -10z m-10212 -202 c33 -33 -3 -108 -51
-108 -49 0 -63 51 -24 94 24 28 56 33 75 14z m1140 -9 c25 -39 -12 -99 -60
-99 -21 0 -32 7 -40 25 -9 21 -7 30 13 60 28 41 67 47 87 14z m-583 -31 c-3
-13 -16 -77 -30 -143 -14 -66 -28 -131 -31 -144 -5 -23 -2 -22 33 12 71 69
127 117 136 117 4 0 5 4 2 10 -8 13 33 22 81 18 l39 -3 -87 -87 -88 -86 16
-39 c9 -21 31 -71 50 -111 19 -40 34 -77 34 -82 0 -6 -22 -10 -48 -10 l-48 0
-31 63 c-17 34 -34 72 -38 85 -9 29 -17 28 -52 -8 -20 -20 -34 -49 -42 -85
l-12 -55 -45 0 c-39 0 -45 3 -40 18 6 18 116 539 116 547 0 3 20 5 45 5 42 0
45 -2 40 -22z m1215 -17 c0 -5 -14 -62 -31 -127 -17 -66 -33 -128 -35 -139
-15 -74 -19 -80 -58 -83 -36 -3 -38 -2 -33 20 6 24 57 321 57 332 0 3 23 6 50
6 28 0 50 -4 50 -9z m180 2 c-1 -5 -20 -84 -44 -178 l-44 -170 -36 -3 c-20 -2
-36 0 -36 5 0 4 14 85 30 178 16 94 30 171 30 173 0 1 23 2 50 2 28 0 50 -3
50 -7z m-636 -68 l-6 -45 41 0 c37 0 41 -3 41 -24 0 -46 -10 -56 -56 -56 -41
0 -44 -2 -53 -36 -19 -68 -34 -181 -28 -198 6 -15 14 -17 41 -12 32 6 34 5 40
-26 4 -20 2 -34 -4 -36 -6 -2 -17 -10 -24 -18 -22 -22 -92 -18 -120 7 -37 33
-39 64 -11 193 14 65 25 119 25 122 0 2 -13 4 -29 4 -29 0 -29 0 -19 40 9 35
14 40 39 40 25 0 29 5 35 38 9 51 10 52 55 52 l40 0 -7 -45z m-1787 -65 c-6
-24 6 -26 28 -4 19 19 82 29 127 20 49 -11 88 -63 95 -128 10 -97 -48 -215
-124 -254 -21 -10 -39 -22 -41 -26 -2 -5 -26 -8 -53 -8 -36 0 -56 6 -71 20
-12 11 -25 20 -29 20 -3 0 -14 -43 -24 -95 l-18 -95 -44 0 c-52 0 -51 -4 -19
133 13 56 38 174 56 262 18 88 34 163 37 168 2 4 22 7 45 7 35 0 40 -2 35 -20z
m438 -17 c-4 -21 -9 -47 -11 -58 -2 -11 -13 -63 -24 -115 -12 -52 -26 -121
-32 -152 l-12 -58 -44 0 c-42 0 -43 1 -38 28 4 15 9 40 12 56 2 15 11 56 19
90 8 33 16 74 19 90 11 63 28 141 33 149 2 4 22 7 45 7 l40 0 -7 -37z m365 -3
c39 -44 38 -63 -5 -83 -35 -17 -35 -17 -64 13 -26 27 -81 43 -81 23 0 -5 -13
-15 -29 -25 -39 -22 -63 -71 -64 -131 -1 -41 3 -53 23 -69 33 -27 97 -19 126
15 16 19 22 21 32 11 6 -7 19 -17 29 -22 16 -9 16 -11 -1 -36 -9 -15 -34 -34
-54 -44 -20 -9 -38 -20 -40 -24 -5 -10 -112 -10 -112 0 0 4 -14 13 -30 20
-100 45 -78 263 34 339 23 15 43 31 46 34 12 14 39 18 97 16 57 -3 65 -6 93
-37z m774 13 c-7 -37 -51 -240 -70 -325 l-16 -68 -37 0 c-21 0 -40 2 -43 5 -4
5 10 76 68 343 l16 72 43 0 c42 0 44 -1 39 -27z m564 -285 c31 -31 -14 -108
-62 -108 -40 0 -52 65 -19 103 18 20 63 23 81 5z m180 0 c18 -18 15 -38 -10
-75 -29 -41 -69 -45 -86 -8 -12 27 -8 50 16 78 17 20 62 23 80 5z m8282 -232
c0 -15 -18 -31 -26 -23 -7 7 7 37 17 37 5 0 9 -6 9 -14z m210 2 c0 -4 -5 -8
-11 -8 -8 0 -8 -5 1 -15 15 -18 7 -19 -21 -5 -15 9 -17 13 -7 24 14 14 38 17
38 4z m-110 -27 c0 -6 -4 -13 -10 -16 -5 -3 -10 1 -10 9 0 9 5 16 10 16 6 0
10 -4 10 -9z m20 -127 c45 -3 50 -4 50 -13 0 -6 -11 -22 -24 -36 -19 -20 -30
-24 -51 -19 -22 5 -26 11 -24 38 3 38 9 51 18 40 3 -5 17 -10 31 -10z m-33
-106 c-3 -8 -6 -5 -6 6 -1 11 2 17 5 13 3 -3 4 -12 1 -19z m-687 -98 c0 -5 -5
-10 -11 -10 -5 0 -7 5 -4 10 3 6 8 10 11 10 2 0 4 -4 4 -10z m283 -19 c36 -2
5 -21 -34 -21 -28 0 -39 4 -39 15 0 12 7 14 28 11 15 -2 35 -5 45 -5z m-2493
-165 c0 -26 -6 -48 -15 -56 -12 -10 -12 -15 1 -36 15 -22 15 -24 0 -30 -18 -7
-108 4 -116 14 -3 4 -18 14 -35 22 -17 9 -31 25 -33 38 -3 17 6 26 45 44 26
13 50 26 53 29 9 11 34 17 68 18 31 1 32 0 32 -43z m-162 -147 c39 -11 84 -62
76 -84 -3 -7 -23 -18 -45 -24 -69 -21 -299 -6 -307 19 -2 6 -9 10 -17 10 -7 0
-18 6 -24 14 -15 18 40 64 88 72 20 3 43 7 51 9 25 6 138 -4 178 -16z m685 -1
c51 -27 87 -72 93 -118 8 -57 -15 -116 -49 -129 -43 -17 -102 6 -151 59 -38
41 -44 53 -42 84 2 20 10 44 18 54 8 9 18 25 21 34 9 25 75 35 110 16z m-957
-129 c24 -6 44 -15 44 -19 0 -4 11 -12 25 -18 30 -14 32 -32 5 -39 -11 -3 -20
-9 -20 -14 0 -5 -52 -9 -115 -9 -63 0 -115 4 -115 9 0 5 -18 12 -39 16 -72 12
-74 54 -3 75 40 12 167 12 218 -1z m-213 -190 c40 -21 87 -80 87 -110 0 -49
-17 -77 -61 -99 -60 -28 -63 -28 -167 17 -38 17 -72 66 -72 105 0 27 29 65 65
86 26 15 120 15 148 1z m567 -36 c0 -6 -60 -63 -66 -63 -2 0 -4 14 -4 31 0 26
3 29 20 24 14 -4 20 -2 20 9 0 10 6 13 15 10 8 -4 15 -8 15 -11z m-190 -15 c0
-6 -6 -5 -15 2 -8 7 -15 14 -15 16 0 2 7 1 15 -2 8 -4 15 -11 15 -16z m-63 -6
c-22 -24 -23 -98 -2 -106 9 -3 25 6 40 22 l26 27 -9 -25 c-11 -30 -56 -50 -74
-32 -19 19 -15 87 6 111 11 12 21 21 24 21 3 0 -2 -8 -11 -18z m36 -31 c-3
-10 -11 -18 -19 -17 -22 3 -29 16 -14 26 24 16 39 11 33 -9z m34 -3 c-3 -8 -6
-5 -6 6 -1 11 2 17 5 13 3 -3 4 -12 1 -19z m-187 -28 c20 -12 9 -21 -18 -13
-12 3 -19 9 -16 14 7 11 15 11 34 -1z m380 -25 c0 -24 -5 -35 -15 -35 -15 0
-22 50 -8 63 15 15 23 5 23 -28z m-55 -24 c-3 -12 -11 -19 -16 -16 -5 4 -3 14
3 25 15 24 22 19 13 -9z m736 -54 c22 -30 29 -51 29 -85 0 -48 -28 -105 -60
-122 -24 -13 -76 -13 -100 0 -55 29 -108 113 -102 160 4 38 42 79 86 94 58 20
111 3 147 -47z m-681 -7 c0 -5 -5 -10 -11 -10 -5 0 -7 5 -4 10 3 6 8 10 11 10
2 0 4 -4 4 -10z m-55 -10 c3 -5 1 -10 -4 -10 -6 0 -11 5 -11 10 0 6 2 10 4 10
3 0 8 -4 11 -10z"/>
<path d="M4313 3808 c-18 -24 -22 -47 -9 -57 25 -21 66 35 43 58 -14 14 -22
14 -34 -1z"/>
<path d="M3670 3848 c0 -7 -3 -23 -6 -35 -5 -18 -2 -23 14 -23 32 0 54 27 42
51 -12 21 -50 26 -50 7z"/>
<path d="M1945 3810 c-3 -5 3 -10 15 -10 12 0 18 5 15 10 -3 6 -10 10 -15 10
-5 0 -12 -4 -15 -10z"/>
<path d="M2236 3805 c-33 -34 -8 -78 29 -51 18 13 18 57 -1 63 -7 2 -19 -3
-28 -12z"/>
<path d="M2580 3810 c-12 -8 -9 -10 13 -10 16 0 26 4 22 10 -8 12 -16 12 -35
0z"/>
<path d="M2843 3808 c-18 -24 -22 -46 -9 -57 19 -16 49 10 44 39 -4 27 -21 36
-35 18z"/>
<path d="M3185 3810 c-4 -6 5 -10 20 -10 15 0 24 4 20 10 -3 6 -12 10 -20 10
-8 0 -17 -4 -20 -10z"/>
<path d="M4095 3750 c-3 -5 1 -10 9 -10 8 0 18 5 21 10 3 6 -1 10 -9 10 -8 0
-18 -4 -21 -10z"/>
<path d="M4717 3808 c-19 -10 -23 -53 -6 -63 14 -9 49 24 49 45 0 22 -21 31
-43 18z"/>
<path d="M13007 3314 c-11 -11 -8 -44 3 -44 15 0 24 30 13 41 -5 5 -12 6 -16
3z"/>
<path d="M13063 3053 c-26 -5 -30 -21 -9 -29 8 -3 12 -12 9 -20 -7 -20 -20
-17 -26 6 -7 25 -23 26 -30 1 -6 -24 7 -46 22 -37 6 4 11 2 11 -5 0 -7 10 -9
25 -7 14 3 25 1 25 -3 0 -5 9 -1 19 8 21 17 18 43 -5 43 -19 0 -18 16 1 24 8
3 15 10 15 16 0 10 -16 11 -57 3z"/>
<path d="M12987 2965 c-4 -8 -2 -17 3 -20 6 -4 10 3 10 14 0 25 -6 27 -13 6z"/>
<path d="M5373 2904 c-40 -20 -63 -62 -70 -130 -5 -51 -4 -53 41 -91 17 -14
52 -17 58 -5 2 4 17 14 33 22 38 20 64 72 65 133 0 79 -51 108 -127 71z"/>
<path d="M1129 2905 c-23 -12 -59 -55 -59 -70 0 -3 41 -5 90 -5 l90 0 0 29 c0
53 -64 77 -121 46z"/>
<path d="M1789 2905 c-23 -12 -59 -55 -59 -70 0 -3 41 -5 90 -5 l90 0 0 29 c0
53 -64 77 -121 46z"/>
<path d="M2728 2905 c-41 -23 -70 -78 -71 -136 -1 -42 4 -54 26 -74 24 -23 77
-35 77 -17 0 4 13 14 29 24 39 22 63 71 64 131 1 40 -3 53 -22 68 -27 22 -66
24 -103 4z"/>
<path d="M4660 2750 c-29 -29 -27 -78 4 -86 14 -3 35 -3 48 1 32 10 78 60 78
85 0 18 -7 20 -55 20 -42 0 -60 -5 -75 -20z"/>
<path d="M2310 2093 c0 -5 -13 -16 -30 -25 -38 -22 -62 -79 -58 -142 3 -42 7
-53 30 -65 65 -37 151 31 164 130 6 42 4 50 -23 78 -28 28 -83 44 -83 24z"/>
<path d="M9732 892 c-21 -14 -3 -39 31 -45 70 -11 126 23 71 43 -31 12 -84 13
-102 2z"/>
<path d="M10536 904 c-18 -48 25 -124 71 -124 46 0 58 76 18 115 -28 29 -79
34 -89 9z"/>
<path d="M9480 761 c0 -12 58 -24 89 -19 12 1 22 8 22 13 -1 13 -111 19 -111
6z"/>
<path d="M9314 566 c-10 -27 1 -51 29 -60 47 -17 86 24 57 59 -16 19 -79 20
-86 1z"/>
<path d="M10559 425 c-1 -3 -2 -9 -3 -14 0 -5 -4 -13 -8 -17 -14 -14 -8 -51
12 -76 41 -52 110 -36 110 26 0 46 -36 86 -78 86 -18 0 -33 -2 -33 -5z"/>
</g>
</svg>
