<?xml version="1.0" standalone="no"?>
<!DOCTYPE svg PUBLIC "-//W3C//DTD SVG 20010904//EN"
 "http://www.w3.org/TR/2001/REC-SVG-20010904/DTD/svg10.dtd">
<svg version="1.0" xmlns="http://www.w3.org/2000/svg"
 width="966.000000pt" height="494.000000pt" viewBox="0 0 966.000000 494.000000"
 preserveAspectRatio="xMidYMid meet">

<g transform="translate(0.000000,494.000000) scale(0.100000,-0.100000)"
fill="#000000" stroke="none">
<path d="M3490 4400 c0 -5 7 -10 15 -10 8 0 15 5 15 10 0 6 -7 10 -15 10 -8 0
-15 -4 -15 -10z"/>
<path d="M3640 4335 c0 -79 17 -104 22 -33 2 33 8 44 22 46 24 5 36 -14 36
-55 0 -18 5 -33 10 -33 6 0 10 18 10 39 0 48 -23 75 -56 67 -21 -6 -24 -3 -24
19 0 14 -4 25 -10 25 -6 0 -10 -32 -10 -75z"/>
<path d="M6270 4400 c0 -5 5 -10 10 -10 6 0 10 5 10 10 0 6 -4 10 -10 10 -5 0
-10 -4 -10 -10z"/>
<path d="M6580 4336 l0 -74 45 2 c49 1 65 15 65 53 0 33 -28 56 -62 49 -25 -5
-28 -3 -28 19 0 14 -4 25 -10 25 -6 0 -10 -31 -10 -74z m85 -21 c0 -25 -4 -30
-24 -30 -32 0 -49 28 -31 50 7 9 23 15 34 13 16 -2 21 -10 21 -33z"/>
<path d="M1082 4333 c-29 -67 -33 -95 -8 -60 18 23 82 23 95 0 5 -10 13 -15
17 -11 9 10 -48 137 -62 138 -6 0 -25 -30 -42 -67z m68 -15 c0 -5 -11 -8 -25
-8 -27 0 -31 10 -14 42 11 21 12 21 25 -3 7 -13 13 -27 14 -31z"/>
<path d="M1226 4387 c-27 -20 -16 -50 24 -63 48 -16 46 -39 -2 -38 -39 1 -50
-9 -22 -20 27 -10 61 -7 74 9 20 24 7 49 -30 61 -43 14 -46 38 -5 41 49 2 51
3 35 13 -21 14 -53 12 -74 -3z"/>
<path d="M1350 4340 c0 -48 4 -61 19 -70 55 -29 91 3 91 78 0 29 -4 52 -10 52
-5 0 -10 -25 -10 -55 0 -50 -2 -55 -24 -61 -38 -9 -46 2 -46 62 0 30 -4 54
-10 54 -6 0 -10 -27 -10 -60z"/>
<path d="M1512 4388 c-24 -24 -13 -49 28 -65 49 -19 47 -38 -4 -37 -42 1 -48
-13 -10 -22 70 -18 102 50 34 72 -45 15 -47 39 -2 39 34 0 42 9 16 19 -25 9
-49 7 -62 -6z"/>
<path d="M1707 4389 c-26 -15 -38 -54 -27 -83 12 -34 45 -49 86 -41 30 5 34
10 34 35 0 17 -4 30 -10 30 -5 0 -10 -9 -10 -20 0 -26 -25 -36 -56 -22 -17 9
-24 20 -24 41 0 40 21 55 67 47 35 -6 37 -5 19 9 -23 17 -53 19 -79 4z"/>
<path d="M1960 4330 c0 -56 3 -70 15 -70 10 0 15 10 15 30 0 27 3 30 30 30 17
0 30 5 30 10 0 6 -13 10 -30 10 -23 0 -30 4 -30 20 0 16 7 20 35 20 19 0 35 5
35 10 0 6 -22 10 -50 10 l-50 0 0 -70z"/>
<path d="M2605 4375 c-14 -13 -25 -33 -25 -45 0 -27 43 -70 70 -70 35 0 60 19
60 45 0 31 -17 33 -22 3 -6 -46 -88 -25 -88 22 0 29 36 53 70 47 31 -7 42 6
14 17 -30 12 -55 6 -79 -19z"/>
<path d="M2730 4390 c0 -5 9 -10 20 -10 18 0 20 -7 20 -60 0 -47 3 -60 15 -60
12 0 15 13 15 60 0 53 2 60 20 60 11 0 20 5 20 10 0 6 -25 10 -55 10 -30 0
-55 -4 -55 -10z"/>
<path d="M2910 4380 c0 -11 5 -20 10 -20 6 0 10 5 10 10 0 6 14 10 30 10 l30
0 -19 -37 c-25 -51 -34 -83 -23 -83 10 0 62 109 62 129 0 7 -20 11 -50 11 -43
0 -50 -3 -50 -20z"/>
<path d="M3030 4390 c0 -5 7 -10 15 -10 12 0 15 -13 15 -60 0 -33 4 -60 10
-60 6 0 10 30 10 70 0 68 -1 70 -25 70 -14 0 -25 -4 -25 -10z"/>
<path d="M3130 4380 c-39 -39 -12 -120 38 -120 47 0 71 89 34 123 -25 22 -48
21 -72 -3z m58 -12 c26 -26 8 -88 -25 -88 -23 0 -38 46 -25 75 13 27 31 32 50
13z"/>
<path d="M3853 4355 c-18 -24 -33 -49 -33 -55 0 -5 18 -10 40 -10 29 0 40 -4
40 -15 0 -8 5 -15 10 -15 6 0 10 6 10 14 0 8 6 17 13 20 10 5 10 7 0 12 -7 3
-13 12 -13 20 0 8 -4 14 -10 14 -5 0 -10 -7 -10 -15 0 -9 -10 -15 -26 -15 -28
0 -27 3 14 58 17 22 20 32 11 32 -8 -1 -29 -21 -46 -45z"/>
<path d="M6137 4389 c-26 -15 -38 -54 -27 -83 12 -34 45 -49 86 -41 30 5 34
10 34 35 0 17 -4 30 -10 30 -5 0 -10 -9 -10 -20 0 -26 -25 -36 -56 -22 -17 9
-24 20 -24 41 0 40 21 55 67 47 35 -6 37 -5 19 9 -23 17 -53 19 -79 4z"/>
<path d="M7113 4330 c-24 -52 -28 -70 -17 -70 8 0 14 7 14 15 0 11 11 15 40
15 27 0 43 -5 46 -15 4 -8 12 -15 19 -15 9 0 4 21 -18 70 -17 39 -36 70 -42
70 -6 0 -25 -31 -42 -70z m67 -12 c0 -5 -11 -8 -25 -8 -29 0 -29 -1 -14 37
l11 28 13 -25 c8 -14 14 -28 15 -32z"/>
<path d="M7266 4379 c-17 -13 -26 -30 -26 -49 0 -33 40 -70 75 -70 37 0 68 32
68 70 0 62 -65 90 -117 49z m82 -11 c7 -7 12 -24 12 -38 0 -14 -5 -31 -12 -38
-28 -28 -88 -2 -88 38 0 40 60 66 88 38z"/>
<path d="M7420 4330 c0 -40 4 -70 10 -70 6 0 10 9 10 20 0 13 7 20 20 20 11 0
25 -9 32 -20 7 -11 19 -20 26 -20 9 0 9 6 -3 24 -14 21 -14 25 0 36 37 31 1
80 -58 80 l-37 0 0 -70z m80 35 c17 -20 -3 -45 -36 -45 -20 0 -24 5 -24 30 0
25 4 30 24 30 13 0 29 -7 36 -15z"/>
<path d="M7562 4344 c5 -61 23 -84 63 -84 36 0 55 31 55 88 0 29 -4 52 -10 52
-5 0 -10 -22 -10 -48 0 -51 -12 -72 -42 -72 -23 0 -38 30 -38 79 0 24 -5 41
-11 41 -8 0 -10 -19 -7 -56z"/>
<path d="M7726 4384 c-26 -26 -16 -49 26 -59 15 -4 32 -13 39 -21 15 -18 -11
-29 -51 -20 -39 7 -39 -10 0 -19 36 -8 66 1 74 22 9 21 -9 40 -50 53 -44 15
-38 35 10 34 37 -1 48 9 20 20 -27 10 -52 7 -68 -10z"/>
<path d="M7915 4375 c-14 -13 -25 -33 -25 -45 0 -27 43 -70 70 -70 35 0 60 19
60 45 0 31 -17 33 -22 3 -6 -46 -88 -25 -88 22 0 29 36 53 70 47 31 -7 42 6
14 17 -30 12 -55 6 -79 -19z"/>
<path d="M8180 4330 c0 -40 4 -70 10 -70 6 0 10 14 10 30 0 28 3 30 35 30 19
0 35 5 35 10 0 6 -16 10 -35 10 -28 0 -35 4 -35 20 0 17 7 20 40 20 22 0 40 5
40 10 0 6 -22 10 -50 10 l-50 0 0 -70z"/>
<path d="M3551 4374 c-9 -11 -10 -18 -3 -23 6 -3 12 -24 14 -46 2 -33 7 -41
26 -43 12 -2 22 1 22 7 0 6 -7 11 -15 11 -19 0 -21 66 -3 72 9 3 8 9 -4 21
-20 20 -19 20 -37 1z"/>
<path d="M6830 4373 c-10 -12 -11 -18 -2 -21 7 -2 12 -18 12 -36 0 -18 5 -37
12 -44 15 -15 38 -16 38 -2 0 6 -7 10 -15 10 -10 0 -15 11 -15 35 0 24 5 35
15 35 8 0 15 5 15 10 0 6 -7 10 -15 10 -8 0 -15 5 -15 10 0 15 -13 12 -30 -7z"/>
<path d="M1847 4352 c-22 -25 -21 -55 2 -76 22 -20 62 -18 69 3 3 9 0 11 -7 6
-15 -9 -61 2 -61 15 0 6 18 10 40 10 33 0 40 3 40 20 0 19 -27 40 -53 40 -8 0
-21 -8 -30 -18z m58 -12 c4 -6 -7 -10 -25 -10 -18 0 -29 4 -25 10 3 6 15 10
25 10 10 0 22 -4 25 -10z"/>
<path d="M2098 4359 c-12 -6 -18 -22 -18 -45 0 -43 34 -64 75 -46 20 9 25 19
25 46 0 48 -40 70 -82 45z m57 -44 c0 -25 -4 -30 -25 -30 -16 0 -26 6 -28 18
-6 30 6 49 30 45 18 -2 23 -9 23 -33z"/>
<path d="M2210 4313 c0 -29 5 -53 10 -53 6 0 10 16 10 35 0 24 6 39 20 47 28
18 25 25 -10 25 -30 0 -30 -1 -30 -54z"/>
<path d="M2307 4352 c-36 -40 -3 -101 48 -88 14 4 25 11 25 17 0 6 -7 8 -16 5
-28 -11 -54 3 -54 29 0 27 21 37 58 29 26 -5 26 -5 8 10 -26 21 -49 20 -69 -2z"/>
<path d="M2420 4350 c-11 -11 -20 -27 -20 -35 0 -21 36 -55 58 -55 19 0 53 19
37 21 -5 1 -19 0 -31 0 -11 -1 -27 5 -34 13 -11 14 -7 16 34 16 50 0 60 14 28
43 -25 22 -48 21 -72 -3z m65 -10 c4 -6 -7 -10 -25 -10 -18 0 -29 4 -25 10 3
6 15 10 25 10 10 0 22 -4 25 -10z"/>
<path d="M3300 4362 c0 -20 33 -102 41 -102 5 0 16 17 25 38 l17 37 15 -38 c8
-21 19 -36 25 -34 5 1 18 25 28 52 22 58 22 55 10 55 -5 0 -16 -19 -24 -42
l-15 -43 -11 30 c-6 17 -14 36 -16 43 -8 23 -22 12 -35 -28 -15 -44 -25 -44
-35 0 -6 28 -25 52 -25 32z"/>
<path d="M3490 4315 c0 -30 5 -55 10 -55 6 0 10 25 10 55 0 30 -4 55 -10 55
-5 0 -10 -25 -10 -55z"/>
<path d="M6270 4315 c0 -30 5 -55 10 -55 6 0 10 25 10 55 0 30 -4 55 -10 55
-5 0 -10 -25 -10 -55z"/>
<path d="M6338 4359 c-26 -15 -24 -75 3 -90 12 -6 30 -8 41 -6 12 4 18 1 15
-6 -2 -7 -18 -12 -35 -13 -17 0 -34 -3 -38 -7 -12 -12 48 -19 72 -8 22 10 24
17 24 73 l0 63 -33 2 c-17 1 -40 -2 -49 -8z m61 -28 c13 -24 -8 -55 -35 -49
-20 3 -30 29 -20 54 8 20 43 17 55 -5z"/>
<path d="M6470 4360 c-15 -10 -13 -11 29 -13 38 -3 37 -25 -1 -29 -28 -2 -33
-7 -33 -28 0 -23 4 -25 43 -26 l42 -1 0 38 c0 56 -39 85 -80 59z m55 -70 c-3
-5 -15 -10 -26 -10 -10 0 -19 5 -19 10 0 6 12 10 26 10 14 0 23 -4 19 -10z"/>
<path d="M6725 4313 c26 -58 25 -68 -10 -75 -19 -5 -19 -5 -2 -13 24 -10 49
15 72 75 9 25 19 51 22 58 3 6 1 12 -4 12 -6 0 -18 -19 -27 -42 l-17 -43 -19
43 c-10 23 -24 42 -29 42 -6 0 1 -26 14 -57z"/>
<path d="M6927 4352 c-22 -25 -21 -55 2 -76 21 -19 62 -18 68 0 2 7 -5 10 -20
7 -14 -3 -29 2 -36 11 -12 14 -9 16 28 16 34 0 41 3 41 20 0 19 -27 40 -53 40
-8 0 -21 -8 -30 -18z m58 -12 c4 -6 -7 -10 -25 -10 -18 0 -29 4 -25 10 3 6 15
10 25 10 10 0 22 -4 25 -10z"/>
<path d="M8068 4359 c-26 -15 -24 -75 3 -89 22 -12 69 -6 69 9 0 5 -14 8 -31
7 -18 0 -34 5 -36 12 -3 8 8 12 36 12 45 0 53 16 23 43 -21 19 -39 21 -64 6z
m57 -19 c4 -6 -7 -10 -25 -10 -18 0 -29 4 -25 10 3 6 15 10 25 10 10 0 22 -4
25 -10z"/>
<path d="M8310 4350 c-11 -11 -20 -27 -20 -35 0 -21 36 -55 59 -55 27 0 51 26
51 55 0 51 -54 71 -90 35z m65 -35 c0 -25 -4 -30 -24 -30 -32 0 -49 28 -31 50
7 9 23 15 34 13 16 -2 21 -10 21 -33z"/>
<path d="M8430 4313 c0 -29 5 -53 10 -53 6 0 10 16 10 35 0 24 6 39 20 47 28
18 25 25 -10 25 -30 0 -30 -1 -30 -54z"/>
<path d="M8528 4359 c-26 -15 -24 -75 3 -89 22 -12 69 -6 69 9 0 5 -15 8 -32
7 -30 -1 -33 2 -33 29 0 27 3 30 33 29 34 -2 43 10 16 20 -22 8 -36 7 -56 -5z"/>
<path d="M8637 4352 c-22 -25 -21 -55 2 -76 21 -19 62 -18 68 0 2 7 -5 10 -20
7 -14 -3 -29 2 -36 11 -12 14 -9 16 28 16 34 0 41 3 41 20 0 19 -27 40 -53 40
-8 0 -21 -8 -30 -18z m58 -12 c4 -6 -7 -10 -25 -10 -18 0 -29 4 -25 10 3 6 15
10 25 10 10 0 22 -4 25 -10z"/>
<path d="M7970 4160 c0 -5 5 -10 10 -10 6 0 10 5 10 10 0 6 -4 10 -10 10 -5 0
-10 -4 -10 -10z"/>
<path d="M1290 4090 c0 -40 4 -70 10 -70 6 0 10 14 10 30 0 28 2 30 40 30 38
0 40 -2 40 -30 0 -16 5 -30 10 -30 6 0 10 30 10 70 0 40 -4 70 -10 70 -5 0
-10 -13 -10 -30 0 -28 -2 -30 -40 -30 -38 0 -40 2 -40 30 0 17 -4 30 -10 30
-6 0 -10 -30 -10 -70z"/>
<path d="M1450 4090 l0 -70 43 0 c60 0 87 21 87 70 0 49 -27 70 -87 70 l-43 0
0 -70z m91 40 c12 -7 19 -21 19 -40 0 -32 -23 -50 -64 -50 -24 0 -26 3 -26 50
0 47 2 50 26 50 14 0 34 -5 45 -10z"/>
<path d="M1620 4090 c0 -76 17 -97 22 -27 l3 42 20 -32 c10 -18 23 -33 27 -33
4 0 15 15 25 33 l18 32 3 -42 c5 -70 22 -49 22 28 0 77 -7 80 -41 19 -13 -22
-25 -40 -29 -40 -3 0 -16 20 -30 45 -14 25 -28 45 -32 45 -5 0 -8 -31 -8 -70z"/>
<path d="M1810 4090 c0 -40 4 -70 10 -70 6 0 10 30 10 70 0 40 -4 70 -10 70
-6 0 -10 -30 -10 -70z"/>
<path d="M2523 4153 c-25 -10 -12 -22 17 -17 47 10 50 -20 6 -65 -20 -20 -36
-40 -36 -44 0 -4 23 -7 50 -7 28 0 50 5 50 10 0 6 -14 10 -32 10 l-32 0 27 28
c52 54 18 113 -50 85z"/>
<path d="M2656 4139 c-35 -28 -35 -70 0 -98 47 -37 95 -25 93 23 -1 29 -1 29
-8 6 -8 -31 -45 -38 -72 -14 -41 37 -10 90 48 81 34 -6 46 6 17 17 -28 11 -51
6 -78 -15z"/>
<path d="M2790 4090 l0 -70 41 0 c22 0 49 5 60 10 19 11 26 44 10 54 -4 3 -6
17 -3 32 6 33 -10 44 -65 44 l-43 0 0 -70z m85 30 c0 -10 -12 -16 -32 -18 -28
-3 -33 0 -33 18 0 18 5 21 33 18 20 -2 32 -8 32 -18z m10 -60 c0 -10 -12 -16
-37 -18 -33 -3 -38 0 -38 18 0 18 5 21 38 18 25 -2 37 -8 37 -18z"/>
<path d="M3016 4139 c-35 -28 -35 -70 0 -98 47 -37 95 -25 93 23 -1 29 -1 29
-8 6 -8 -31 -45 -38 -72 -14 -41 37 -10 90 48 81 34 -6 46 6 17 17 -28 11 -51
6 -78 -15z"/>
<path d="M3150 4090 l0 -70 45 0 c51 0 95 32 95 70 0 38 -44 70 -95 70 l-45 0
0 -70z m106 25 c15 -23 15 -27 0 -50 -11 -17 -26 -25 -46 -25 -29 0 -30 1 -30
50 0 49 1 50 30 50 20 0 35 -8 46 -25z"/>
<path d="M3320 4090 l0 -70 35 0 c70 0 106 36 91 93 -7 28 -44 47 -91 47 l-35
0 0 -70z m91 40 c12 -7 19 -21 19 -40 0 -32 -23 -50 -64 -50 -24 0 -26 3 -26
50 0 47 2 50 26 50 14 0 34 -5 45 -10z"/>
<path d="M3480 4090 c0 -56 3 -70 15 -70 8 0 15 9 15 20 0 13 7 20 20 20 11 0
25 -9 32 -20 7 -11 19 -20 27 -20 11 0 10 4 -3 19 -17 18 -17 22 -2 43 20 29
20 34 -4 58 -13 13 -33 20 -60 20 l-40 0 0 -70z m90 35 c17 -20 -3 -45 -36
-45 -20 0 -24 5 -24 30 0 25 4 30 24 30 13 0 29 -7 36 -15z"/>
<path d="M3630 4125 c0 -30 3 -35 24 -35 13 0 29 -6 35 -14 16 -19 -12 -40
-44 -32 -30 8 -34 -10 -4 -19 30 -10 67 2 74 24 9 29 -5 52 -36 58 -39 7 -38
33 1 33 17 0 30 5 30 10 0 6 -18 10 -40 10 -39 0 -40 -1 -40 -35z"/>
<path d="M6840 4090 c0 -40 4 -70 10 -70 6 0 10 9 10 20 0 28 43 27 63 -2 8
-13 18 -20 22 -16 4 4 2 15 -5 23 -10 12 -10 19 -2 27 7 7 12 24 12 40 0 33
-24 48 -74 48 l-36 0 0 -70z m85 20 c0 -21 -5 -26 -32 -28 -31 -3 -33 -1 -33
28 0 29 2 31 33 28 27 -2 32 -7 32 -28z"/>
<path d="M6970 4150 c0 -5 9 -10 20 -10 18 0 20 -7 20 -60 0 -47 3 -60 15 -60
12 0 15 13 15 60 0 53 2 60 20 60 11 0 20 5 20 10 0 6 -25 10 -55 10 -30 0
-55 -4 -55 -10z"/>
<path d="M7096 4148 c4 -7 14 -21 23 -31 14 -17 14 -22 -7 -58 -26 -44 -14
-53 16 -12 l20 27 25 -30 c34 -39 43 -27 12 16 l-24 33 26 33 c18 25 21 34 11
34 -8 0 -21 -11 -28 -25 -7 -14 -16 -25 -20 -25 -4 0 -13 11 -20 25 -7 14 -20
25 -27 25 -9 0 -11 -5 -7 -12z"/>
<path d="M7280 4150 c0 -5 14 -10 30 -10 33 0 38 -11 14 -31 -14 -11 -13 -14
11 -26 36 -19 26 -38 -19 -37 -39 1 -48 -11 -15 -21 56 -18 102 32 60 66 -18
15 -19 18 -6 29 29 24 17 40 -30 40 -25 0 -45 -4 -45 -10z"/>
<path d="M7420 4140 c-39 -39 -12 -120 38 -120 47 0 71 89 34 123 -25 22 -48
21 -72 -3z m58 -12 c26 -26 8 -88 -25 -88 -23 0 -38 46 -25 75 13 27 31 32 50
13z"/>
<path d="M7530 4140 c0 -21 16 -28 22 -9 2 6 16 9 31 7 l27 -3 -25 -53 c-29
-62 -29 -62 -15 -62 9 0 70 120 70 136 0 2 -25 4 -55 4 -48 0 -55 -2 -55 -20z"/>
<path d="M7670 4140 c-39 -39 -12 -120 38 -120 47 0 71 89 34 123 -25 22 -48
21 -72 -3z m58 -12 c26 -26 8 -88 -25 -88 -23 0 -38 46 -25 75 13 27 31 32 50
13z"/>
<path d="M7830 4150 c0 -5 11 -10 25 -10 24 0 25 -3 25 -60 0 -33 4 -60 10
-60 6 0 10 27 10 60 0 57 1 60 25 60 14 0 25 5 25 10 0 6 -27 10 -60 10 -33 0
-60 -4 -60 -10z"/>
<path d="M2270 4133 c-10 -12 -11 -18 -2 -21 7 -2 12 -18 12 -36 0 -18 5 -37
12 -44 15 -15 38 -16 38 -2 0 6 -7 10 -15 10 -10 0 -15 11 -15 35 0 24 5 35
15 35 8 0 15 5 15 10 0 6 -7 10 -15 10 -8 0 -15 5 -15 10 0 15 -13 12 -30 -7z"/>
<path d="M1920 4054 c0 -43 4 -74 10 -74 6 0 10 11 10 25 0 22 3 24 28 19 34
-7 62 16 62 49 0 38 -16 52 -65 53 l-45 2 0 -74z m85 21 c0 -25 -4 -30 -24
-30 -32 0 -49 28 -31 50 7 9 23 15 34 13 16 -2 21 -10 21 -33z"/>
<path d="M2070 4110 c-11 -11 -20 -27 -20 -35 0 -21 36 -55 59 -55 45 0 68 62
35 94 -21 22 -50 20 -74 -4z m65 -35 c0 -25 -4 -30 -24 -30 -32 0 -49 28 -31
50 7 9 23 15 34 13 16 -2 21 -10 21 -33z"/>
<path d="M2190 4073 c0 -29 5 -53 10 -53 6 0 10 18 10 41 0 32 4 42 20 46 30
8 24 20 -10 20 -30 0 -30 -1 -30 -54z"/>
<path d="M2361 4117 c-17 -21 -4 -44 30 -51 19 -3 28 -10 23 -17 -3 -6 -17 -9
-30 -6 -34 6 -41 -11 -8 -19 32 -8 59 6 59 31 0 13 -11 22 -33 27 -37 10 -33
32 5 25 15 -3 22 0 20 7 -5 17 -52 19 -66 3z"/>
<path d="M7970 4075 c0 -30 5 -55 10 -55 6 0 10 25 10 55 0 30 -4 55 -10 55
-5 0 -10 -25 -10 -55z"/>
<path d="M1620 3855 c0 -79 17 -104 22 -33 2 33 8 44 22 46 24 5 36 -14 36
-55 0 -18 5 -33 10 -33 6 0 10 18 10 39 0 48 -23 75 -56 67 -21 -6 -24 -3 -24
19 0 14 -4 25 -10 25 -6 0 -10 -32 -10 -75z"/>
<path d="M1750 3920 c0 -5 7 -10 15 -10 8 0 15 5 15 10 0 6 -7 10 -15 10 -8 0
-15 -4 -15 -10z"/>
<path d="M2410 3905 c0 -22 -3 -25 -24 -19 -17 4 -31 -1 -45 -15 -40 -40 -16
-84 48 -87 l41 -2 0 74 c0 43 -4 74 -10 74 -5 0 -10 -11 -10 -25z m-5 -70 c0
-25 -4 -30 -24 -30 -32 0 -49 28 -31 50 7 9 23 15 34 13 16 -2 21 -10 21 -33z"/>
<path d="M1147 3909 c-26 -15 -38 -54 -27 -83 12 -34 45 -49 86 -41 30 5 34
10 34 35 0 17 -4 30 -10 30 -5 0 -10 -9 -10 -20 0 -26 -25 -36 -56 -22 -17 9
-24 20 -24 41 0 40 21 55 67 47 35 -6 37 -5 19 9 -23 17 -53 19 -79 4z"/>
<path d="M2000 3900 c-59 -59 21 -156 86 -105 18 15 17 16 -13 10 -45 -9 -73
9 -73 45 0 36 28 54 73 45 30 -6 31 -5 13 10 -27 21 -62 19 -86 -5z"/>
<path d="M2553 3910 c-26 -10 -38 -48 -29 -85 8 -31 48 -48 88 -40 23 5 28 12
28 36 0 16 -4 29 -10 29 -5 0 -10 -11 -10 -25 0 -19 -5 -25 -21 -25 -37 0 -59
19 -59 50 0 36 29 54 71 45 34 -8 40 10 7 19 -29 7 -38 7 -65 -4z"/>
<path d="M2660 3910 c0 -5 11 -10 25 -10 24 0 25 -3 25 -60 0 -33 4 -60 10
-60 6 0 10 27 10 60 0 57 1 60 25 60 14 0 25 5 25 10 0 6 -27 10 -60 10 -33 0
-60 -4 -60 -10z"/>
<path d="M2790 3900 c0 -21 16 -28 22 -9 2 6 16 9 31 7 l27 -3 -25 -53 c-29
-62 -29 -62 -15 -62 9 0 70 120 70 136 0 2 -25 4 -55 4 -48 0 -55 -2 -55 -20z"/>
<path d="M2910 3910 c0 -5 7 -10 15 -10 12 0 15 -13 15 -60 0 -33 4 -60 10
-60 6 0 10 30 10 70 0 68 -1 70 -25 70 -14 0 -25 -4 -25 -10z"/>
<path d="M3015 3900 c-41 -45 -6 -130 48 -116 28 7 52 54 42 85 -16 51 -59 65
-90 31z m65 -25 c14 -37 -4 -77 -33 -73 -17 2 -23 11 -25 36 -4 45 3 62 28 62
13 0 24 -10 30 -25z"/>
<path d="M3243 3875 c-18 -24 -33 -49 -33 -55 0 -5 16 -10 35 -10 24 0 35 -5
35 -15 0 -8 5 -15 10 -15 6 0 10 7 10 15 0 8 7 15 15 15 8 0 15 5 15 10 0 6
-6 10 -14 10 -8 0 -17 8 -19 18 -4 16 -5 16 -6 0 -1 -12 -9 -18 -26 -18 -32 0
-31 4 6 51 18 23 25 39 17 39 -7 -1 -28 -21 -45 -45z"/>
<path d="M3350 3850 c0 -56 3 -70 15 -70 10 0 15 10 15 30 0 28 3 30 35 30 32
0 35 -2 35 -30 0 -16 5 -30 10 -30 6 0 10 30 10 70 0 40 -4 70 -10 70 -5 0
-10 -13 -10 -30 0 -28 -3 -30 -35 -30 -32 0 -35 2 -35 30 0 20 -5 30 -15 30
-12 0 -15 -14 -15 -70z"/>
<path d="M3596 3904 c-26 -26 -16 -49 26 -59 15 -4 32 -13 39 -21 15 -18 -11
-29 -51 -20 -39 7 -39 -10 0 -19 36 -8 66 1 74 22 9 21 -9 40 -50 53 -44 15
-38 35 10 34 37 -1 48 9 20 20 -27 10 -52 7 -68 -10z"/>
<path d="M3720 3850 l0 -70 45 0 c25 0 45 5 45 10 0 6 -16 10 -35 10 l-35 0 0
60 c0 33 -4 60 -10 60 -6 0 -10 -30 -10 -70z"/>
<path d="M1280 3834 c0 -30 5 -54 10 -54 6 0 10 18 10 40 0 27 5 43 15 46 23
9 18 19 -10 20 -24 2 -25 -1 -25 -52z"/>
<path d="M1367 3883 c-13 -13 -7 -19 20 -18 14 0 28 -6 30 -12 3 -8 -5 -13
-20 -13 -13 0 -30 -7 -37 -15 -19 -23 5 -45 46 -43 33 1 34 2 34 43 0 22 -5
46 -12 53 -13 13 -50 16 -61 5z m53 -73 c0 -5 -11 -10 -25 -10 -14 0 -25 5
-25 10 0 6 11 10 25 10 14 0 25 -4 25 -10z"/>
<path d="M1480 3813 c0 -42 4 -73 10 -73 6 0 10 11 10 25 0 22 3 24 29 19 24
-5 32 -1 47 21 16 25 16 30 3 54 -12 21 -22 26 -57 27 l-42 1 0 -74z m84 35
c8 -14 7 -21 -6 -34 -22 -22 -58 -10 -58 21 0 37 43 46 64 13z"/>
<path d="M1750 3835 c0 -30 5 -55 10 -55 6 0 10 25 10 55 0 30 -4 55 -10 55
-5 0 -10 -25 -10 -55z"/>
<path d="M1820 3870 c-11 -11 -20 -27 -20 -35 0 -21 36 -55 59 -55 10 0 24 7
31 15 11 13 8 14 -17 9 -20 -4 -33 -1 -43 11 -21 25 0 50 39 48 26 -1 30 1 20
13 -16 20 -46 17 -69 -6z"/>
<path d="M2137 3883 c-13 -13 -7 -19 20 -18 14 0 28 -6 30 -12 3 -8 -5 -13
-20 -13 -13 0 -30 -7 -37 -15 -19 -23 5 -45 46 -43 33 1 34 2 34 43 0 22 -5
46 -12 53 -13 13 -50 16 -61 5z m53 -73 c0 -5 -11 -10 -25 -10 -14 0 -25 5
-25 10 0 6 11 10 25 10 14 0 25 -4 25 -10z"/>
<path d="M2250 3833 c0 -29 5 -53 10 -53 6 0 10 18 10 41 0 32 4 42 20 46 30
8 24 20 -10 20 -30 0 -30 -1 -30 -54z"/>
<path d="M6883 3879 c21 -12 23 -33 1 -25 -12 5 -15 -2 -12 -37 3 -42 23 -52
24 -11 0 11 10 30 22 42 31 31 27 42 -15 42 -31 -1 -35 -3 -20 -11z"/>
<path d="M7002 3847 c-18 -21 -60 -150 -60 -182 0 -32 -2 -44 -20 -88 -7 -16
-12 -34 -12 -41 0 -6 -4 -16 -9 -21 -5 -6 -16 -35 -26 -65 -10 -30 -23 -68
-30 -85 -7 -16 -25 -67 -40 -113 -15 -45 -31 -80 -36 -76 -5 3 -8 -3 -7 -13 0
-10 0 -36 -1 -58 -1 -36 -3 -38 -15 -22 -20 26 -27 7 -11 -30 12 -28 33 -41
162 -102 203 -97 267 -129 289 -146 39 -31 -350 142 -409 181 -42 28 -67 75
-67 127 0 29 141 458 214 650 14 37 21 67 17 67 -5 0 -23 -42 -41 -92 -17 -51
-88 -243 -156 -427 -69 -183 -124 -334 -122 -335 64 -39 62 -36 41 -93 -3 -7
-1 -13 5 -13 5 0 16 16 24 35 l13 34 90 -42 c50 -24 125 -58 167 -77 43 -19
77 -40 78 -46 0 -7 -9 -31 -20 -55 -11 -24 -20 -49 -20 -55 0 -6 26 -23 58
-37 74 -35 57 -31 -188 43 -262 78 -248 72 -256 115 -4 25 -11 35 -20 31 -7
-3 -18 3 -23 12 -9 15 -10 13 -11 -8 0 -14 -4 -30 -8 -37 -8 -13 0 -15 -192
45 -345 109 -419 132 -424 132 -3 0 -6 -241 -6 -535 l0 -535 1485 0 1485 0 0
95 0 94 -37 10 c-21 6 -44 11 -50 11 -15 0 -15 -3 -3 40 19 64 60 327 60 381
0 30 7 97 15 149 18 115 19 190 2 210 -16 21 -214 136 -354 207 l-111 56 -57
-21 -57 -20 -46 34 c-26 19 -52 39 -59 44 -7 6 -17 10 -23 10 -6 0 -8 5 -4 12
5 8 2 9 -9 5 -10 -4 -17 -2 -17 4 0 6 -7 8 -16 5 -12 -5 -15 -2 -10 10 5 12 1
14 -17 8 -21 -6 -21 -6 3 14 14 12 20 21 13 22 -6 0 -15 -4 -18 -10 -3 -5 -11
-10 -17 -10 -6 0 -5 7 3 16 12 15 11 16 -11 9 -23 -7 -24 -7 -10 10 14 17 14
17 -17 2 -43 -23 -50 -21 -22 4 l24 20 -25 -7 c-23 -6 -24 -6 -10 11 14 17 13
17 -9 10 -18 -5 -22 -4 -16 6 6 9 2 11 -13 7 -16 -4 -19 -2 -15 10 5 11 2 14
-11 9 -11 -5 -15 -3 -10 5 5 7 0 9 -14 6 -16 -4 -19 -2 -15 10 5 11 2 14 -10
9 -9 -3 -17 -2 -17 3 0 6 -7 10 -15 10 -8 0 -15 4 -15 10 0 5 -11 12 -25 16
-14 3 -25 10 -25 15 0 5 -7 9 -15 9 -8 0 -15 4 -15 10 0 5 -7 7 -15 4 -8 -4
-15 -1 -15 5 0 6 -7 11 -16 11 -8 0 -12 5 -9 10 6 10 -13 15 -48 12 -10 -1
-28 9 -40 22 -12 14 -42 36 -67 49 -112 60 -215 115 -341 179 -75 38 -146 78
-157 89 -24 22 -55 25 -70 6z m291 -174 c-13 -2 -33 -2 -45 0 -13 2 -3 4 22 4
25 0 35 -2 23 -4z m67 -24 c0 -11 -4 -17 -10 -14 -5 3 -10 13 -10 21 0 8 5 14
10 14 6 0 10 -9 10 -21z m-218 -8 c-10 -6 -6 -11 17 -19 21 -7 31 -18 31 -31
0 -32 -16 -33 -49 -5 -20 16 -39 24 -51 21 -11 -3 -20 -4 -20 -2 0 6 65 45 75
45 6 0 4 -4 -3 -9z m558 -176 c0 -5 -5 -3 -10 5 -5 8 -10 20 -10 25 0 6 5 3
10 -5 5 -8 10 -19 10 -25z m-613 0 c19 -13 58 -103 49 -112 -2 -3 -23 5 -46
17 -23 12 -64 24 -91 27 -27 3 -49 9 -49 12 1 20 13 50 20 46 4 -3 21 2 36 10
36 19 54 19 81 0z m238 -112 c-3 -27 -9 -58 -12 -70 -5 -20 -1 -22 54 -25 51
-3 58 -6 61 -25 7 -51 -69 -128 -120 -121 -25 3 -26 9 -13 94 l7 50 -53 10
c-50 8 -54 11 -56 39 -2 20 5 39 20 56 28 31 41 37 86 38 l33 1 -7 -47z m-209
-104 c18 -6 34 -18 37 -28 4 -15 -6 -21 -52 -34 -34 -9 -73 -30 -98 -52 l-42
-36 -10 38 c-15 52 -14 61 9 93 28 39 72 44 156 19z m417 -36 c-7 -2 -19 -2
-25 0 -7 3 -2 5 12 5 14 0 19 -2 13 -5z m295 -91 c18 -42 26 -75 20 -78 -13
-8 -13 -8 -42 70 -47 124 -28 131 22 8z m-630 -20 c10 -7 7 -21 -12 -63 -14
-30 -28 -71 -31 -91 -4 -21 -10 -38 -14 -38 -26 0 -71 68 -71 108 0 54 86 110
128 84z m-492 -89 c-1 -1 -12 4 -24 12 -18 14 -20 19 -10 47 l11 32 13 -44 c7
-24 12 -45 10 -47z m631 -30 c6 -32 14 -66 18 -77 8 -17 6 -17 -22 -3 -31 17
-63 57 -63 79 0 19 29 58 43 58 7 0 17 -25 24 -57z m527 -9 c-6 -16 -30 -37
-69 -58 -33 -18 -124 -69 -202 -114 -78 -45 -152 -82 -165 -82 l-22 0 22 15
c38 28 144 86 263 146 99 49 118 63 130 91 15 38 30 51 43 38 6 -6 6 -19 0
-36z m102 -53 c22 -11 45 -26 51 -33 16 -19 135 -338 131 -350 -5 -14 -20 19
-86 187 -57 145 -60 151 -106 183 -54 36 -50 42 10 13z m-841 -21 c3 -6 -1 -7
-9 -4 -18 7 -21 14 -7 14 6 0 13 -4 16 -10z m-529 -137 c-11 -11 -17 4 -9 23
7 18 8 18 11 1 2 -10 1 -21 -2 -24z m-334 -149 c24 -5 27 -10 21 -33 -16 -67
-21 -74 -55 -67 -65 13 -119 96 -64 96 14 0 28 5 31 10 4 6 14 9 23 6 10 -3
29 -8 44 -12z m106 -51 c12 -3 22 -13 22 -22 0 -13 2 -13 9 -2 6 9 16 11 32 5
13 -4 28 -7 32 -6 4 1 18 -3 30 -10 12 -7 28 -11 35 -10 7 2 12 -7 12 -20 1
-21 2 -22 14 -5 21 27 33 20 44 -23 8 -32 7 -40 -3 -40 -8 0 -16 4 -19 9 -3 5
-18 9 -33 9 -15 0 -29 4 -31 10 -1 5 -11 8 -20 5 -31 -8 -72 14 -72 39 l0 22
-17 -23 -16 -24 -19 23 c-10 12 -18 17 -18 11 0 -6 -5 -11 -11 -11 -7 0 -9 10
-5 25 4 15 2 25 -5 25 -6 0 -13 -9 -16 -20 -6 -22 -23 -28 -23 -7 0 6 3 22 7
35 4 19 10 22 27 17 11 -4 31 -9 44 -12z m1416 -79 c19 -9 39 -27 44 -38 11
-25 194 -111 217 -102 7 2 21 -4 31 -15 9 -10 13 -19 8 -19 -10 0 -327 94
-356 105 -21 9 -29 31 -22 61 7 28 29 31 78 8z m-134 -34 c0 -11 -2 -20 -4
-20 -2 0 -6 9 -9 20 -3 11 -1 20 4 20 5 0 9 -9 9 -20z"/>
<path d="M6470 2500 c0 -5 5 -10 10 -10 6 0 10 5 10 10 0 6 -4 10 -10 10 -5 0
-10 -4 -10 -10z"/>
<path d="M3130 3840 c0 -5 11 -10 25 -10 14 0 25 5 25 10 0 6 -11 10 -25 10
-14 0 -25 -4 -25 -10z"/>
<path d="M3510 3840 c0 -5 11 -10 25 -10 14 0 25 5 25 10 0 6 -11 10 -25 10
-14 0 -25 -4 -25 -10z"/>
<path d="M3830 3840 c0 -5 11 -10 25 -10 14 0 25 5 25 10 0 6 -11 10 -25 10
-14 0 -25 -4 -25 -10z"/>
<path d="M2243 3673 c-25 -10 -12 -22 17 -17 47 10 50 -20 6 -65 -20 -20 -36
-40 -36 -44 0 -4 23 -7 50 -7 28 0 50 5 50 10 0 6 -14 10 -32 10 l-32 0 27 28
c52 54 18 113 -50 85z"/>
<path d="M2376 3659 c-62 -49 2 -142 78 -113 10 4 16 17 15 38 -1 29 -1 29 -8
6 -8 -31 -45 -38 -72 -14 -41 37 -10 90 48 81 34 -6 46 6 17 17 -28 11 -51 6
-78 -15z"/>
<path d="M2510 3610 l0 -70 43 0 c60 0 87 21 87 70 0 49 -27 70 -87 70 l-43 0
0 -70z m91 40 c12 -7 19 -21 19 -40 0 -32 -23 -50 -64 -50 -24 0 -26 3 -26 50
0 47 2 50 26 50 14 0 34 -5 45 -10z"/>
<path d="M2678 3645 c-4 -32 -2 -35 23 -35 15 0 32 -6 38 -14 16 -19 -12 -40
-44 -32 -27 7 -35 -8 -9 -18 28 -11 51 -6 68 13 25 27 12 60 -25 68 -39 7 -38
33 1 33 17 0 30 5 30 10 0 6 -18 10 -39 10 -37 0 -39 -2 -43 -35z"/>
<path d="M2440 3170 c-168 -21 -386 -48 -484 -60 -99 -12 -192 -24 -208 -27
l-28 -5 0 -143 c0 -103 4 -145 13 -153 7 -6 53 -28 102 -49 l90 -39 3 -84 c2
-46 -2 -88 -7 -93 -7 -7 -39 4 -96 32 -102 48 -115 50 -115 15 0 -14 -4 -34
-10 -44 -13 -25 -2 -32 114 -70 117 -39 109 -39 441 20 127 22 284 50 350 61
66 11 167 29 225 39 58 10 124 21 146 25 39 6 42 9 46 40 3 28 -1 38 -24 55
-26 19 -28 26 -28 90 0 63 2 70 19 70 11 0 22 4 26 9 6 11 10 279 4 285 -16
13 -209 66 -238 65 -20 -1 -173 -18 -341 -39z m-322 -89 c9 -5 -3 -10 -35 -14
-55 -6 -67 -2 -32 12 30 12 50 13 67 2z m-118 -21 c-20 -13 -93 -13 -85 0 3 6
27 10 53 10 34 0 43 -3 32 -10z m-110 -10 c0 -5 -2 -10 -4 -10 -3 0 -8 5 -11
10 -3 6 -1 10 4 10 6 0 11 -4 11 -10z m-79 -40 c25 -14 25 -30 -1 -23 -24 6
-49 33 -31 33 7 0 21 -5 32 -10z m512 -10 c3 -11 1 -22 -3 -25 -8 -5 -220 -35
-247 -35 -7 0 -13 7 -13 15 0 21 -10 19 -37 -7 -13 -12 -23 -17 -23 -11 0 23
39 42 103 51 55 7 70 6 74 -5 7 -18 40 -16 51 3 7 13 40 26 83 33 4 1 9 -8 12
-19z m-438 -21 c10 -15 2 -19 -24 -12 -17 4 -19 8 -9 14 18 12 26 11 33 -2z
m842 -41 c34 -32 29 -51 -18 -66 -22 -7 -44 -10 -49 -7 -5 3 -18 1 -28 -4 -13
-7 -22 -7 -29 0 -8 8 -17 8 -31 0 -25 -13 -32 -14 -32 -2 0 5 23 14 51 21 27
7 48 14 46 17 -3 2 -24 -1 -48 -6 -24 -5 -60 -12 -79 -15 -31 -4 -32 -4 -12 6
12 6 22 17 22 25 0 8 12 13 33 13 18 0 37 4 43 10 8 8 68 26 98 29 6 1 20 -9
33 -21z m-212 -87 c-16 -14 -55 -23 -55 -12 0 9 20 17 50 20 8 1 10 -2 5 -8z
m435 -75 c0 -46 5 -69 16 -81 9 -9 15 -17 13 -19 -2 -2 -52 -11 -111 -21 -137
-23 -140 -21 -136 84 l3 76 80 11 c144 21 135 24 135 -50z m-470 -156 c0 -5
-9 -10 -20 -10 -11 0 -20 5 -20 10 0 6 9 10 20 10 11 0 20 -4 20 -10z m-50 -4
c0 -9 -30 -14 -35 -6 -4 6 3 10 14 10 12 0 21 -2 21 -4z m-130 -26 c8 -5 11
-10 5 -10 -5 0 -17 5 -25 10 -8 5 -10 10 -5 10 6 0 17 -5 25 -10z m-35 -20
c-27 -12 -43 -12 -25 0 8 5 22 9 30 9 10 0 8 -3 -5 -9z m-220 -20 c-7 -12 -32
-13 -39 -2 -2 4 7 9 20 10 15 1 22 -2 19 -8z m85 0 c0 -5 -6 -10 -12 -10 -7 0
-23 -3 -35 -6 -14 -4 -23 -2 -23 5 0 5 7 8 15 5 8 -4 15 -1 15 5 0 6 9 11 20
11 11 0 20 -4 20 -10z m-105 -20 c18 -8 17 -9 -7 -9 -16 -1 -28 4 -28 9 0 12
8 12 35 0z"/>
<path d="M2850 2690 c0 -5 7 -10 15 -10 8 0 15 5 15 10 0 6 -7 10 -15 10 -8 0
-15 -4 -15 -10z"/>
<path d="M1810 2596 c0 -3 9 -10 20 -16 11 -6 20 -8 20 -6 0 3 -9 10 -20 16
-11 6 -20 8 -20 6z"/>
<path d="M3040 2419 c-42 -10 -90 -18 -147 -23 -37 -4 -69 -12 -133 -34 -8 -3
-22 -4 -32 -3 -9 1 -19 -3 -23 -9 -3 -6 -10 -8 -15 -5 -4 3 -52 -4 -106 -15
-53 -11 -111 -22 -128 -24 -17 -2 -38 -7 -47 -11 -10 -3 -20 -2 -24 4 -4 7
-19 4 -45 -9 -22 -11 -43 -20 -47 -19 -26 4 -35 -3 -30 -23 6 -22 6 -22 -13 2
-30 38 -24 13 8 -31 15 -21 32 -37 39 -34 7 2 15 -1 19 -7 4 -7 3 -8 -4 -4
-18 11 -14 -10 5 -25 15 -12 16 -12 8 1 -4 8 4 4 19 -10 14 -13 24 -30 22 -37
-3 -7 -1 -12 4 -10 11 2 91 -95 84 -102 -2 -2 -11 4 -20 15 -15 18 -15 18 -5
-3 16 -32 14 -36 -18 -31 -17 2 -28 1 -26 -3 3 -4 -12 -10 -33 -13 -52 -8 -64
-11 -86 -21 -13 -6 -21 -3 -28 8 -5 10 -16 17 -24 17 -8 0 -13 4 -10 9 7 11
-114 193 -132 199 -21 7 -27 -30 -7 -44 18 -13 18 -14 -3 -14 -12 0 -22 -6
-22 -12 0 -9 -16 -13 -49 -13 -27 0 -47 3 -44 8 2 4 17 7 34 7 34 0 37 10 10
34 -15 13 -28 16 -52 11 -19 -4 -29 -3 -26 3 4 5 30 12 59 15 80 10 93 13 88
23 -6 11 -23 10 -131 -6 -47 -8 -92 -11 -100 -8 -8 3 -38 44 -67 92 -60 97
-50 94 -189 73 -98 -15 -117 -27 -40 -27 55 0 57 -1 87 -44 16 -25 30 -46 30
-48 0 -2 -19 -2 -42 0 -47 3 -75 -9 -63 -28 7 -12 55 -10 87 4 12 6 25 -6 52
-47 37 -55 46 -77 24 -59 -12 10 -92 2 -104 -11 -3 -2 2 -11 10 -20 15 -15 61
-12 72 4 12 20 42 8 54 -21 7 -16 16 -30 20 -30 6 0 30 -44 30 -55 0 -3 -22
-5 -49 -5 -52 0 -65 -8 -55 -34 8 -20 31 -20 68 -1 36 19 56 19 56 0 0 -8 9
-24 19 -34 11 -11 27 -33 35 -49 l15 -30 -59 -6 c-41 -5 -60 -11 -60 -21 0 -7
-6 -15 -12 -17 -17 -6 19 -88 38 -88 7 0 52 10 99 22 70 17 85 24 79 37 -14
36 -9 45 34 54 23 4 42 12 42 18 0 5 -4 9 -10 9 -16 0 -12 20 5 26 8 4 22 3
31 0 13 -5 14 -9 4 -21 -15 -18 -14 -18 68 -4 64 11 64 11 86 -16 20 -25 26
-27 65 -20 33 5 42 11 38 24 -2 9 -6 22 -8 30 -6 22 30 25 52 5 17 -16 26 -16
89 -5 39 7 70 16 70 19 0 4 20 7 45 8 25 0 53 8 63 16 9 9 103 35 207 57 501
109 716 159 723 166 4 4 -3 14 -15 22 -39 26 -27 40 42 53 36 7 67 15 69 19 3
4 23 6 45 6 66 -1 65 25 -5 96 -62 63 -69 66 -108 47 -23 -10 -24 -12 -9 -23
9 -7 17 -21 18 -31 2 -11 5 -26 9 -34 9 -20 -41 -46 -119 -60 -33 -6 -67 -13
-76 -16 -11 -3 -47 24 -101 75 -96 92 -211 181 -230 180 -7 -1 -29 -5 -48 -10z
m-1360 -129 c12 -8 11 -10 -7 -10 -13 0 -23 5 -23 10 0 13 11 13 30 0z m65
-120 c3 -5 1 -10 -4 -10 -6 0 -11 5 -11 10 0 6 2 10 4 10 3 0 8 -4 11 -10z
m138 -47 c-20 -7 -15 -19 13 -31 14 -7 22 -17 19 -22 -7 -12 -26 -14 -22 -2 2
8 -6 12 -30 12 -15 0 -14 -2 3 -14 16 -12 16 -15 4 -19 -43 -14 -69 -16 -76
-5 -5 7 -2 9 9 5 12 -4 17 3 22 33 6 37 17 47 55 48 10 0 11 -1 3 -5z m224
-49 c-11 -11 13 -44 31 -45 11 0 9 -3 -8 -10 -21 -9 -28 -6 -47 18 -29 36 -29
43 4 43 14 0 23 -3 20 -6z m-41 -69 c16 -34 18 -45 8 -45 -8 0 -14 9 -14 19 0
11 -4 21 -9 23 -11 4 -25 48 -14 48 4 -1 17 -21 29 -45z m-140 27 c-2 -4 -1
-14 5 -22 7 -13 9 -13 9 0 1 8 8 2 16 -13 9 -16 13 -31 10 -35 -3 -3 -6 0 -6
7 0 7 -5 9 -10 6 -16 -10 -49 4 -60 26 -9 16 -7 21 12 29 30 11 30 11 24 2z
m228 -50 c-22 -5 -31 7 -14 18 9 6 17 5 22 -3 4 -7 1 -13 -8 -15z m-134 -53
c0 -5 -7 -9 -15 -9 -15 0 -20 12 -9 23 8 8 24 -1 24 -14z m-180 1 c0 -5 -5
-10 -11 -10 -5 0 -7 5 -4 10 3 6 8 10 11 10 2 0 4 -4 4 -10z m317 -11 c-18
-10 -18 -11 0 -24 10 -7 21 -11 24 -9 4 2 12 -2 18 -10 9 -11 7 -15 -9 -19
-11 -3 -20 -1 -20 4 0 5 -5 9 -11 9 -7 0 -17 7 -24 16 -8 12 -20 15 -43 9 -18
-3 -32 -10 -32 -15 0 -4 -11 -10 -25 -12 -14 -3 -25 -1 -25 3 0 5 7 9 16 9 10
0 14 6 10 15 -4 12 3 15 34 15 22 0 40 3 40 8 0 4 15 8 33 9 27 2 29 0 14 -8z
m-195 -32 c5 -9 16 -17 24 -17 13 0 13 -2 -1 -16 -15 -15 -17 -15 -35 1 -11
10 -17 21 -15 26 6 9 -31 23 -43 15 -4 -2 -14 0 -22 5 -11 7 0 9 34 6 32 -2
51 -9 58 -20z m153 -47 c3 -5 -1 -10 -9 -10 -9 0 -16 5 -16 10 0 6 4 10 9 10
6 0 13 -4 16 -10z m-175 -60 c-8 -5 -22 -10 -30 -10 -13 0 -13 1 0 10 8 5 22
10 30 10 13 0 13 -1 0 -10z m-60 -10 c-20 -13 -43 -13 -35 0 3 6 16 10 28 10
18 0 19 -2 7 -10z m-53 -71 c-14 -8 -22 -8 -30 0 -8 8 -3 11 19 11 25 -1 27
-2 11 -11z"/>
<path d="M1928 1983 c7 -3 16 -2 19 1 4 3 -2 6 -13 5 -11 0 -14 -3 -6 -6z"/>
<path d="M1490 2290 c0 -5 5 -10 11 -10 5 0 7 5 4 10 -3 6 -8 10 -11 10 -2 0
-4 -4 -4 -10z"/>
<path d="M2119 2255 c17 -33 31 -51 31 -40 0 6 -10 21 -21 35 -13 17 -17 18
-10 5z"/>
<path d="M2179 2255 c13 -27 91 -130 91 -121 0 8 -48 77 -80 116 -15 18 -18
19 -11 5z"/>
<path d="M2175 2176 c10 -14 19 -26 22 -26 7 0 -17 39 -28 46 -6 3 -3 -5 6
-20z"/>
<path d="M1560 2161 c0 -5 9 -7 20 -4 11 3 20 7 20 9 0 2 -9 4 -20 4 -11 0
-20 -4 -20 -9z"/>
<path d="M1685 1970 c3 -5 8 -10 11 -10 2 0 4 5 4 10 0 6 -5 10 -11 10 -5 0
-7 -4 -4 -10z"/>
<path d="M1704 1881 c3 -5 15 -7 26 -4 28 7 25 13 -6 13 -14 0 -23 -4 -20 -9z"/>
<path d="M6354 1744 c13 -32 28 -60 33 -61 11 -4 57 107 48 115 -2 3 -14 -17
-26 -44 l-21 -49 -18 45 c-9 24 -22 46 -28 48 -6 2 -1 -23 12 -54z"/>
<path d="M6620 1790 c0 -5 5 -10 10 -10 6 0 10 5 10 10 0 6 -4 10 -10 10 -5 0
-10 -4 -10 -10z"/>
<path d="M7832 1793 c-24 -9 -34 -53 -18 -77 21 -32 84 -62 98 -48 9 9 6 12
-12 12 l-24 0 22 20 c51 47 -1 119 -66 93z m63 -47 c0 -36 -27 -56 -52 -40
-40 25 -20 77 26 72 21 -2 26 -8 26 -32z"/>
<path d="M8330 1790 c0 -5 5 -10 10 -10 6 0 10 5 10 10 0 6 -4 10 -10 10 -5 0
-10 -4 -10 -10z"/>
<path d="M6871 1772 c-9 -9 -10 -16 -3 -21 5 -3 12 -20 14 -36 2 -19 10 -31
21 -33 9 -2 17 1 17 7 0 6 -7 11 -15 11 -18 0 -21 46 -3 52 10 4 9 8 -2 20
-14 13 -17 13 -29 0z"/>
<path d="M8257 1778 c-13 -36 21 -114 41 -93 4 4 1 10 -5 12 -17 6 -17 50 -1
55 9 3 8 9 -4 21 -20 20 -24 21 -31 5z"/>
<path d="M8373 1775 c-6 -7 -8 -16 -3 -21 5 -5 10 -22 12 -39 2 -19 9 -31 21
-33 9 -2 17 1 17 7 0 6 -7 11 -15 11 -21 0 -19 40 3 56 15 12 15 13 0 14 -9 0
-18 4 -20 9 -1 5 -8 3 -15 -4z"/>
<path d="M6455 1760 c-3 -6 5 -10 19 -10 35 0 42 -18 9 -22 -20 -2 -28 -9 -28
-23 0 -16 7 -20 33 -20 30 -1 32 1 32 36 0 24 -5 39 -16 43 -23 9 -42 7 -49
-4z m38 -57 c-7 -2 -19 -2 -25 0 -7 3 -2 5 12 5 14 0 19 -2 13 -5z"/>
<path d="M6550 1723 c0 -24 5 -43 10 -43 6 0 10 14 10 31 0 19 7 37 17 44 16
12 15 13 -10 12 -25 -2 -27 -5 -27 -44z"/>
<path d="M6623 1725 c0 -27 2 -38 4 -22 2 15 2 37 0 50 -2 12 -4 0 -4 -28z"/>
<path d="M6670 1756 c-27 -34 8 -88 46 -71 17 8 17 9 -6 13 -42 7 -47 22 -7
22 38 0 48 15 25 38 -16 16 -43 15 -58 -2z m43 -13 c-7 -2 -19 -2 -25 0 -7 3
-2 5 12 5 14 0 19 -2 13 -5z"/>
<path d="M6760 1724 c0 -51 17 -60 22 -11 2 24 8 32 23 32 15 0 22 -9 27 -35
6 -32 6 -31 5 10 -2 45 -2 45 -39 47 l-38 1 0 -44z"/>
<path d="M6940 1755 c-15 -18 -5 -35 20 -35 10 0 22 -4 25 -10 4 -6 -7 -10
-26 -10 -25 0 -30 -3 -22 -11 7 -7 23 -9 38 -5 32 8 31 39 -3 44 -27 4 -29 22
-2 22 11 0 20 5 20 10 0 15 -36 12 -50 -5z"/>
<path d="M7940 1751 c0 -11 4 -31 10 -45 7 -20 15 -25 40 -23 29 2 30 4 29 47
-2 44 -2 44 -8 10 -4 -26 -12 -36 -28 -38 -20 -3 -23 1 -23 32 0 20 -4 36 -10
36 -5 0 -10 -9 -10 -19z"/>
<path d="M8055 1760 c-3 -6 5 -10 19 -10 35 0 42 -18 9 -22 -20 -2 -28 -9 -28
-23 0 -16 7 -20 33 -20 30 -1 32 1 32 36 0 24 -5 39 -16 43 -23 9 -42 7 -49
-4z m48 -57 c-7 -2 -21 -2 -30 0 -10 3 -4 5 12 5 17 0 24 -2 18 -5z"/>
<path d="M8150 1724 c0 -51 17 -60 22 -11 2 24 8 32 23 32 15 0 22 -9 27 -35
6 -32 6 -31 5 10 -2 45 -2 45 -39 47 l-38 1 0 -44z"/>
<path d="M8330 1725 c0 -25 5 -45 10 -45 6 0 10 20 10 45 0 25 -4 45 -10 45
-5 0 -10 -20 -10 -45z"/>
<path d="M8440 1744 c6 -14 15 -34 21 -45 9 -17 7 -21 -10 -26 -12 -3 -21 -9
-21 -14 0 -13 26 -11 38 4 18 21 52 107 43 107 -5 0 -14 -13 -20 -30 -5 -16
-13 -30 -16 -30 -3 0 -11 14 -16 30 -6 17 -15 30 -20 30 -5 0 -4 -12 1 -26z"/>
<path d="M5982 1438 c-8 -8 -12 -62 -12 -178 0 -116 4 -170 12 -178 17 -17
1359 -17 1376 0 8 8 12 62 12 178 0 116 -4 170 -12 178 -17 17 -1359 17 -1376
0z m1373 -178 l0 -175 -685 0 -685 0 -3 165 c-1 90 0 170 2 177 4 11 137 13
688 11 l683 -3 0 -175z"/>
<path d="M6250 1310 c0 -5 5 -10 10 -10 6 0 10 5 10 10 0 6 -4 10 -10 10 -5 0
-10 -4 -10 -10z"/>
<path d="M6413 1260 c0 -48 1 -56 6 -30 4 26 12 36 29 38 19 3 22 -1 22 -32 0
-20 5 -36 10 -36 16 0 12 66 -5 80 -8 6 -23 9 -34 5 -15 -4 -21 -1 -24 17 -2
13 -4 -6 -4 -42z"/>
<path d="M6781 1265 c-1 -59 0 -60 27 -62 34 -2 52 13 52 42 0 29 -24 48 -49
40 -15 -4 -21 -1 -24 17 -2 13 -5 -4 -6 -37z m64 -20 c0 -22 -31 -33 -47 -17
-17 17 -1 44 24 40 15 -2 23 -10 23 -23z"/>
<path d="M6518 1299 c-14 -37 19 -116 40 -95 4 4 -1 12 -11 17 -21 12 -23 49
-2 49 8 0 15 5 15 10 0 6 -6 10 -14 10 -8 0 -16 5 -18 12 -3 8 -6 7 -10 -3z"/>
<path d="M6160 1276 c-27 -34 8 -88 46 -71 16 8 14 10 -13 13 -41 4 -43 22 -3
22 31 0 39 17 18 38 -16 16 -33 15 -48 -2z m43 -13 c-7 -2 -21 -2 -30 0 -10 3
-4 5 12 5 17 0 24 -2 18 -5z"/>
<path d="M6253 1245 c0 -27 2 -38 4 -22 2 15 2 37 0 50 -2 12 -4 0 -4 -28z"/>
<path d="M6301 1277 c-29 -29 0 -85 39 -72 11 4 20 2 20 -4 0 -6 -14 -11 -32
-11 -24 0 -29 -3 -21 -11 7 -7 23 -9 37 -5 24 6 26 11 26 59 0 50 -1 52 -29
54 -15 1 -33 -3 -40 -10z m54 -32 c0 -22 -31 -33 -47 -17 -17 17 -1 44 24 40
15 -2 23 -10 23 -23z"/>
<path d="M6671 1277 c-29 -29 0 -85 39 -72 11 4 20 2 20 -4 0 -6 -14 -11 -32
-11 -24 0 -29 -3 -21 -11 7 -7 23 -9 37 -5 24 6 26 11 26 59 0 50 -1 52 -29
54 -15 1 -33 -3 -40 -10z m54 -32 c0 -22 -31 -33 -47 -17 -17 17 -1 44 24 40
15 -2 23 -10 23 -23z"/>
<path d="M6972 1240 c1 -43 2 -44 5 -7 3 24 9 37 19 37 8 0 14 4 14 9 0 6 -9
9 -20 8 -17 -1 -20 -8 -18 -47z"/>
<path d="M7035 1280 c-3 -5 1 -10 9 -10 9 0 16 5 16 10 0 6 -4 10 -9 10 -6 0
-13 -4 -16 -10z"/>
<path d="M7230 1272 c0 -5 9 -17 20 -27 20 -18 21 -18 42 3 24 24 18 43 -7 22
-12 -10 -19 -10 -27 -2 -14 14 -28 16 -28 4z"/>
<path d="M7031 1236 c-9 -10 -8 -16 4 -26 9 -7 19 -10 22 -6 4 4 1 11 -7 16
-10 7 -11 10 -2 10 6 0 12 5 12 10 0 14 -16 12 -29 -4z"/>
<path d="M6580 1200 c0 -5 16 -10 35 -10 19 0 35 5 35 10 0 6 -16 10 -35 10
-19 0 -35 -4 -35 -10z"/>
<path d="M6870 1200 c0 -5 16 -10 35 -10 19 0 35 5 35 10 0 6 -16 10 -35 10
-19 0 -35 -4 -35 -10z"/>
<path d="M7462 1438 c-8 -8 -12 -62 -12 -178 0 -116 4 -170 12 -178 17 -17
1369 -17 1386 0 8 8 12 62 12 178 0 116 -4 170 -12 178 -17 17 -1369 17 -1386
0z m1383 -178 l0 -175 -690 0 -690 0 -3 165 c-1 90 0 170 2 177 4 11 138 13
693 11 l688 -3 0 -175z"/>
<path d="M7630 1310 c0 -5 4 -10 9 -10 6 0 12 -24 14 -52 l3 -53 2 63 c2 49
-1 62 -13 62 -8 0 -15 -4 -15 -10z"/>
<path d="M8720 1272 c0 -5 9 -17 20 -27 20 -18 21 -18 42 3 24 24 18 43 -7 22
-12 -10 -19 -10 -27 -2 -14 14 -28 16 -28 4z"/>
<path d="M1422 1312 c2 -4 12 -31 22 -60 19 -50 29 -61 40 -44 15 25 44 112
37 112 -4 0 -16 -20 -25 -45 -10 -25 -21 -43 -25 -41 -4 3 -13 23 -21 45 -7
23 -17 41 -22 41 -6 0 -8 -4 -6 -8z"/>
<path d="M1700 1310 c0 -5 5 -10 10 -10 6 0 10 5 10 10 0 6 -4 10 -10 10 -5 0
-10 -4 -10 -10z"/>
<path d="M2912 1304 c-42 -29 -27 -75 34 -106 34 -17 47 -19 56 -10 9 9 7 12
-12 12 -22 0 -23 1 -5 20 23 25 23 70 -1 87 -24 17 -45 16 -72 -3z m68 -19
c15 -18 10 -45 -12 -59 -33 -20 -69 20 -54 60 7 18 50 18 66 -1z"/>
<path d="M3410 1310 c0 -5 5 -10 10 -10 6 0 10 5 10 10 0 6 -4 10 -10 10 -5 0
-10 -4 -10 -10z"/>
<path d="M1953 1295 c-6 -7 -8 -16 -3 -21 5 -5 10 -22 12 -39 2 -19 9 -31 21
-33 9 -2 17 1 17 7 0 6 -7 11 -15 11 -21 0 -19 40 3 56 15 12 15 13 0 14 -9 0
-18 4 -20 9 -1 5 -8 3 -15 -4z"/>
<path d="M3343 1295 c-6 -7 -8 -16 -3 -21 5 -5 10 -22 12 -39 2 -19 9 -31 21
-33 9 -2 17 1 17 7 0 6 -7 11 -15 11 -21 0 -19 40 3 56 15 12 15 13 0 14 -9 0
-18 4 -20 9 -1 5 -8 3 -15 -4z"/>
<path d="M3457 1297 c-10 -26 8 -92 26 -95 9 -2 17 1 17 7 0 6 -4 11 -10 11
-14 0 -12 48 2 52 9 3 8 9 -4 21 -20 20 -24 21 -31 4z"/>
<path d="M1545 1280 c-4 -6 5 -10 19 -10 14 0 26 -4 26 -10 0 -5 -8 -10 -19
-10 -10 0 -24 -6 -30 -14 -15 -18 4 -34 42 -34 22 0 27 5 27 25 0 13 -5 33
-10 44 -11 20 -45 26 -55 9z m38 -57 c-7 -2 -19 -2 -25 0 -7 3 -2 5 12 5 14 0
19 -2 13 -5z"/>
<path d="M1642 1240 c1 -37 2 -39 5 -12 3 18 11 36 19 39 21 8 17 22 -6 20
-17 -1 -20 -8 -18 -47z"/>
<path d="M1700 1245 c0 -25 5 -45 10 -45 6 0 10 20 10 45 0 25 -4 45 -10 45
-5 0 -10 -20 -10 -45z"/>
<path d="M1756 1274 c-9 -8 -16 -22 -16 -29 0 -33 59 -60 75 -35 4 6 -7 10
-24 10 -17 0 -31 5 -31 10 0 6 14 10 30 10 31 0 39 17 18 38 -16 16 -33 15
-52 -4z m47 -11 c-7 -2 -21 -2 -30 0 -10 3 -4 5 12 5 17 0 24 -2 18 -5z"/>
<path d="M1851 1241 c2 -44 2 -45 8 -11 4 26 12 36 28 38 18 3 22 -2 26 -35 4
-34 4 -33 3 7 -1 44 -2 45 -33 46 -33 1 -33 1 -32 -45z"/>
<path d="M2027 1283 c-15 -14 -6 -34 21 -45 l27 -11 -30 -7 c-25 -6 -27 -8
-12 -14 9 -5 24 -6 32 -2 24 9 17 36 -12 48 l-28 12 28 4 c15 2 25 8 22 13 -7
10 -38 12 -48 2z"/>
<path d="M3030 1256 c0 -39 14 -54 53 -54 25 0 27 3 27 44 0 24 -4 44 -10 44
-5 0 -10 -16 -10 -35 0 -28 -4 -35 -20 -35 -16 0 -20 7 -20 35 0 19 -4 35 -10
35 -5 0 -10 -15 -10 -34z"/>
<path d="M3145 1280 c-4 -6 5 -10 19 -10 14 0 26 -4 26 -10 0 -5 -8 -10 -19
-10 -10 0 -24 -6 -30 -14 -15 -18 4 -34 42 -34 22 0 27 5 27 25 0 13 -5 33
-10 44 -11 20 -45 26 -55 9z m38 -57 c-7 -2 -19 -2 -25 0 -7 3 -2 5 12 5 14 0
19 -2 13 -5z"/>
<path d="M3241 1241 c2 -44 2 -45 8 -11 4 26 12 36 28 38 18 3 22 -2 26 -35 4
-34 4 -33 3 7 -1 44 -2 45 -33 46 -33 1 -33 1 -32 -45z"/>
<path d="M3410 1245 c0 -25 5 -45 10 -45 6 0 10 20 10 45 0 25 -4 45 -10 45
-5 0 -10 -20 -10 -45z"/>
<path d="M3523 1263 c29 -57 30 -73 6 -73 -16 0 -20 -3 -13 -10 14 -14 41 -3
47 18 3 9 12 34 21 55 9 20 13 37 8 37 -4 0 -13 -15 -21 -32 l-12 -33 -17 33
c-8 17 -19 32 -24 32 -5 0 -2 -12 5 -27z"/>
<path d="M1062 958 c-17 -17 -17 -339 0 -356 17 -17 1369 -17 1386 0 17 17 17
339 0 356 -17 17 -1369 17 -1386 0z m1383 -178 l0 -175 -690 0 -690 0 -3 165
c-1 90 0 170 2 177 4 11 138 13 693 11 l688 -3 0 -175z"/>
<path d="M1731 785 c-1 -59 0 -60 27 -62 34 -2 52 13 52 42 0 29 -24 48 -49
40 -15 -4 -21 -1 -24 17 -2 13 -5 -4 -6 -37z m69 -20 c0 -20 -5 -25 -24 -25
-13 0 -26 6 -29 13 -7 22 4 37 29 37 19 0 24 -5 24 -25z"/>
<path d="M1231 812 c-9 -9 -10 -16 -3 -21 5 -3 12 -20 14 -36 2 -21 9 -31 23
-33 18 -2 18 -2 3 8 -21 13 -24 56 -6 62 10 4 9 8 -2 20 -14 13 -17 13 -29 0z"/>
<path d="M1296 788 c3 -13 12 -34 20 -48 l13 -25 15 35 15 35 13 -32 c7 -18
15 -33 19 -33 4 0 14 20 22 45 9 25 14 45 11 45 -3 0 -10 -13 -15 -30 -6 -16
-15 -30 -19 -30 -5 0 -11 14 -15 30 -8 39 -17 38 -34 -2 l-13 -33 -14 33 c-16
36 -29 43 -18 10z"/>
<path d="M1458 799 c-27 -15 -23 -57 7 -71 30 -13 55 3 55 36 0 39 -28 55 -62
35z m47 -34 c0 -22 -31 -33 -47 -17 -17 17 -1 44 24 40 15 -2 23 -10 23 -23z"/>
<path d="M1631 797 c-30 -30 0 -84 41 -72 16 5 20 4 13 -3 -5 -6 -23 -12 -40
-14 l-30 -4 28 -8 c40 -12 57 7 57 63 0 43 -2 46 -29 48 -15 1 -33 -3 -40 -10z
m54 -32 c0 -14 -8 -21 -27 -23 -24 -3 -28 0 -28 23 0 23 4 26 28 23 19 -2 27
-9 27 -23z"/>
<path d="M1922 760 c1 -37 2 -39 5 -12 3 18 11 36 19 39 21 8 17 19 -6 19 -17
0 -20 -6 -18 -46z"/>
<path d="M1985 800 c-3 -6 5 -10 19 -10 35 0 42 -18 9 -22 -20 -2 -28 -9 -28
-23 0 -16 7 -20 33 -20 29 -1 32 2 32 30 0 17 -5 36 -12 43 -15 15 -45 16 -53
2z m38 -57 c-7 -2 -19 -2 -25 0 -7 3 -2 5 12 5 14 0 19 -2 13 -5z"/>
<path d="M2081 760 c1 -46 3 -46 13 3 10 43 44 37 49 -10 4 -33 4 -32 3 7 -1
44 -2 45 -33 45 -33 1 -33 0 -32 -45z"/>
<path d="M2320 792 c0 -5 9 -17 20 -27 20 -18 21 -18 42 3 24 24 18 43 -7 22
-12 -10 -19 -10 -27 -2 -14 14 -28 16 -28 4z"/>
<path d="M1530 720 c0 -5 16 -10 35 -10 19 0 35 5 35 10 0 6 -16 10 -35 10
-19 0 -35 -4 -35 -10z"/>
<path d="M1830 720 c0 -5 16 -10 35 -10 19 0 35 5 35 10 0 6 -16 10 -35 10
-19 0 -35 -4 -35 -10z"/>
<path d="M2552 958 c-17 -17 -17 -339 0 -356 17 -17 1369 -17 1386 0 8 8 12
62 12 178 0 116 -4 170 -12 178 -17 17 -1369 17 -1386 0z m1383 -178 l0 -175
-690 0 -690 0 -3 165 c-1 90 0 170 2 177 4 11 138 13 693 11 l688 -3 0 -175z"/>
<path d="M2710 830 c0 -5 7 -10 14 -10 11 0 16 -15 19 -52 l3 -53 2 63 c2 56
0 62 -18 62 -11 0 -20 -4 -20 -10z"/>
<path d="M3810 792 c0 -5 9 -17 20 -27 20 -18 21 -18 42 3 24 24 18 43 -7 22
-12 -10 -19 -10 -27 -2 -14 14 -28 16 -28 4z"/>
<path d="M6240 900 c0 -5 5 -10 10 -10 6 0 10 5 10 10 0 6 -4 10 -10 10 -5 0
-10 -4 -10 -10z"/>
<path d="M6020 830 c0 -40 4 -70 10 -70 6 0 10 9 10 20 0 15 7 20 26 20 41 0
64 18 64 50 0 35 -23 50 -74 50 l-36 0 0 -70z m85 20 c0 -21 -5 -26 -32 -28
-31 -3 -33 -1 -33 28 0 29 2 31 33 28 27 -2 32 -7 32 -28z"/>
<path d="M6680 890 c0 -5 7 -10 15 -10 12 0 15 -13 15 -60 0 -33 4 -60 10 -60
6 0 10 30 10 70 0 68 -1 70 -25 70 -14 0 -25 -4 -25 -10z"/>
<path d="M6760 890 c0 -5 7 -10 15 -10 12 0 15 -13 15 -60 0 -33 4 -60 10 -60
6 0 10 30 10 70 0 68 -1 70 -25 70 -14 0 -25 -4 -25 -10z"/>
<path d="M6852 888 c-30 -30 -1 -74 43 -66 15 3 25 1 25 -6 0 -19 -22 -36 -47
-36 -13 0 -23 -4 -23 -10 0 -15 43 -12 68 6 27 18 31 84 6 108 -18 19 -55 21
-72 4z m63 -28 c0 -18 -33 -26 -47 -12 -6 6 -7 15 -3 22 10 16 50 8 50 -10z"/>
<path d="M6976 884 c-34 -33 -6 -71 44 -60 17 3 30 1 30 -4 0 -17 -32 -40 -56
-40 -14 0 -22 -4 -19 -10 10 -17 54 -11 75 10 11 11 20 33 20 50 0 55 -59 89
-94 54z m62 -26 c3 -13 -3 -18 -22 -18 -27 0 -41 14 -31 31 10 16 49 6 53 -13z"/>
<path d="M7123 855 c-18 -24 -33 -49 -33 -55 0 -5 18 -10 40 -10 29 0 40 -4
40 -15 0 -8 5 -15 10 -15 6 0 10 6 10 14 0 8 6 17 13 20 10 5 10 7 0 12 -7 3
-13 12 -13 20 0 8 -4 14 -10 14 -5 0 -10 -7 -10 -15 0 -9 -10 -15 -26 -15 -28
0 -27 3 14 58 17 22 20 32 11 32 -8 -1 -29 -21 -46 -45z"/>
<path d="M7236 884 c-34 -33 -6 -71 44 -60 17 3 30 1 30 -4 0 -17 -32 -40 -56
-40 -14 0 -22 -4 -19 -10 10 -17 54 -11 75 10 11 11 20 33 20 50 0 55 -59 89
-94 54z m62 -26 c3 -13 -3 -18 -22 -18 -27 0 -41 14 -31 31 10 16 49 6 53 -13z"/>
<path d="M6160 813 c0 -29 5 -53 10 -53 6 0 10 18 10 41 0 32 4 42 20 46 30 8
24 20 -10 20 -30 0 -30 -1 -30 -54z"/>
<path d="M6240 815 c0 -30 5 -55 10 -55 6 0 10 25 10 55 0 30 -4 55 -10 55 -5
0 -10 -25 -10 -55z"/>
<path d="M6307 852 c-22 -24 -21 -55 1 -75 23 -21 56 -22 72 -2 11 13 8 15
-20 13 -40 -4 -61 21 -40 47 9 11 22 14 44 9 27 -6 29 -5 17 10 -18 21 -54 20
-74 -2z"/>
<path d="M6428 859 c-26 -15 -24 -75 3 -89 22 -12 69 -6 69 9 0 5 -14 8 -31 7
-18 0 -34 5 -36 12 -3 8 8 12 36 12 45 0 53 16 23 43 -21 19 -39 21 -64 6z
m57 -19 c4 -6 -7 -10 -25 -10 -18 0 -29 4 -25 10 3 6 15 10 25 10 10 0 22 -4
25 -10z"/>
<path d="M6590 855 c0 -8 5 -15 10 -15 6 0 10 7 10 15 0 8 -4 15 -10 15 -5 0
-10 -7 -10 -15z"/>
<path d="M6590 775 c0 -8 5 -15 10 -15 6 0 10 7 10 15 0 8 -4 15 -10 15 -5 0
-10 -7 -10 -15z"/>
<path d="M6779 664 c-32 -81 -57 -164 -50 -164 11 0 76 179 68 187 -4 3 -12
-7 -18 -23z"/>
<path d="M6500 590 c0 -40 4 -70 10 -70 6 0 10 9 10 20 0 13 7 20 20 20 11 0
25 -9 32 -20 7 -11 19 -20 26 -20 9 0 9 6 -3 24 -14 21 -14 25 0 36 37 31 1
80 -58 80 l-37 0 0 -70z m80 35 c17 -20 -3 -45 -36 -45 -20 0 -24 5 -24 30 0
25 4 30 24 30 13 0 29 -7 36 -15z"/>
<path d="M6641 617 c-17 -21 -4 -44 30 -51 19 -3 28 -10 23 -17 -3 -6 -17 -9
-30 -6 -34 6 -41 -11 -8 -19 32 -8 59 6 59 31 0 13 -11 22 -33 27 -37 10 -33
32 5 25 15 -3 22 0 20 7 -5 17 -52 19 -66 3z"/>
<path d="M6800 580 c0 -5 11 -10 25 -10 14 0 25 5 25 10 0 6 -11 10 -25 10
-14 0 -25 -4 -25 -10z"/>
<path d="M1400 420 c0 -5 5 -10 10 -10 6 0 10 5 10 10 0 6 -4 10 -10 10 -5 0
-10 -4 -10 -10z"/>
<path d="M1170 350 c0 -56 3 -70 15 -70 8 0 15 9 15 20 0 15 7 20 25 20 25 0
65 31 65 50 0 24 -41 50 -80 50 l-40 0 0 -70z m90 35 c17 -20 -3 -45 -36 -45
-20 0 -24 5 -24 30 0 25 4 30 24 30 13 0 29 -7 36 -15z"/>
<path d="M1871 403 c-21 -18 -26 -36 -23 -81 4 -53 102 -52 102 2 0 32 -24 50
-55 42 -14 -4 -25 -3 -25 2 0 16 24 32 48 32 13 0 20 4 17 10 -10 15 -41 12
-64 -7z m54 -78 c0 -22 -31 -33 -47 -17 -17 17 -1 44 24 40 15 -2 23 -10 23
-23z"/>
<path d="M1982 408 c-33 -33 1 -78 48 -63 13 4 20 2 20 -7 0 -21 -21 -38 -47
-38 -13 0 -23 -4 -23 -10 0 -18 49 -11 70 10 26 26 26 81 2 103 -22 20 -53 22
-70 5z m63 -28 c0 -9 -11 -16 -27 -18 -27 -3 -38 14 -21 32 12 12 48 2 48 -14z"/>
<path d="M2117 402 c-36 -40 -11 -122 36 -122 27 0 57 37 57 70 0 34 -30 70
-58 70 -11 0 -26 -8 -35 -18z m65 -27 c8 -19 8 -31 0 -50 -19 -42 -62 -25 -62
25 0 50 43 67 62 25z"/>
<path d="M2250 400 c-39 -39 -12 -120 38 -120 47 0 71 89 34 123 -25 22 -48
21 -72 -3z m59 -14 c17 -20 10 -67 -11 -79 -23 -15 -48 8 -48 42 0 45 35 66
59 37z"/>
<path d="M1310 333 c0 -29 5 -53 10 -53 6 0 10 16 10 35 0 24 6 39 20 47 28
18 25 25 -10 25 -30 0 -30 -1 -30 -54z"/>
<path d="M1400 335 c0 -30 5 -55 10 -55 6 0 10 25 10 55 0 30 -4 55 -10 55 -5
0 -10 -25 -10 -55z"/>
<path d="M1468 379 c-26 -15 -24 -75 3 -89 22 -12 69 -6 69 9 0 5 -15 8 -32 7
-30 -1 -33 2 -33 29 0 27 3 30 33 29 34 -2 43 10 16 20 -22 8 -36 7 -56 -5z"/>
<path d="M1577 372 c-22 -25 -21 -55 2 -76 21 -19 62 -18 68 0 2 7 -5 10 -20
7 -14 -3 -29 2 -36 11 -12 14 -9 16 28 16 34 0 41 3 41 20 0 19 -27 40 -53 40
-8 0 -21 -8 -30 -18z m58 -12 c4 -6 -7 -10 -25 -10 -18 0 -29 4 -25 10 3 6 15
10 25 10 10 0 22 -4 25 -10z"/>
<path d="M1742 381 c4 -13 18 -16 19 -4 0 4 -5 9 -11 12 -7 2 -11 -2 -8 -8z"/>
<path d="M1742 301 c2 -7 7 -12 11 -12 12 1 9 15 -3 20 -7 2 -11 -2 -8 -8z"/>
<path d="M1841 124 c-32 -87 -38 -116 -22 -98 14 16 71 184 62 184 -5 0 -23
-38 -40 -86z"/>
<path d="M1580 110 c0 -40 4 -70 10 -70 6 0 10 9 10 20 0 28 43 27 63 -2 8
-13 18 -20 22 -16 4 4 2 15 -5 23 -10 12 -10 19 -2 27 7 7 12 24 12 40 0 33
-24 48 -74 48 l-36 0 0 -70z m85 20 c0 -21 -5 -26 -32 -28 -31 -3 -33 -1 -33
28 0 29 2 31 33 28 27 -2 32 -7 32 -28z"/>
<path d="M1725 134 c-19 -19 -7 -39 30 -48 36 -9 31 -29 -5 -24 -39 6 -50 -9
-14 -18 32 -8 59 6 59 31 0 13 -11 22 -33 27 -37 10 -34 28 4 28 14 0 22 4 19
10 -9 15 -42 12 -60 -6z"/>
<path d="M1880 100 c0 -5 11 -10 25 -10 14 0 25 5 25 10 0 6 -11 10 -25 10
-14 0 -25 -4 -25 -10z"/>
</g>
</svg>
